<svg width="40" height="40" viewBox="0 0 40 40" fill="none" xmlns="http://www.w3.org/2000/svg">
<rect x="0.5" y="0.5" width="39" height="39" rx="19.5" stroke="#C1C2C4"/>
<path d="M14.626 24.048V25H9.25V24.048H11.399V17.209C11.399 17.0037 11.406 16.796 11.42 16.586L9.635 18.119C9.57433 18.1703 9.51367 18.203 9.453 18.217C9.39233 18.2263 9.33633 18.2263 9.285 18.217C9.23367 18.2077 9.18467 18.189 9.138 18.161C9.096 18.133 9.06333 18.1027 9.04 18.07L8.648 17.531L11.637 14.948H12.652V24.048H14.626ZM19.8671 24.076C20.2031 24.076 20.5064 24.0223 20.7771 23.915C21.0524 23.8077 21.2858 23.6583 21.4771 23.467C21.6731 23.2757 21.8224 23.0493 21.9251 22.788C22.0324 22.5267 22.0861 22.242 22.0861 21.934C22.0861 21.6073 22.0348 21.3133 21.9321 21.052C21.8294 20.786 21.6824 20.562 21.4911 20.38C21.3044 20.1933 21.0804 20.051 20.8191 19.953C20.5578 19.855 20.2708 19.806 19.9581 19.806C19.6221 19.806 19.3188 19.8643 19.0481 19.981C18.7774 20.093 18.5464 20.247 18.3551 20.443C18.1684 20.6343 18.0238 20.8583 17.9211 21.115C17.8231 21.367 17.7741 21.6307 17.7741 21.906C17.7741 22.228 17.8208 22.522 17.9141 22.788C18.0074 23.054 18.1428 23.2827 18.3201 23.474C18.5021 23.6653 18.7214 23.8147 18.9781 23.922C19.2394 24.0247 19.5358 24.076 19.8671 24.076ZM19.1391 18.728C19.0504 18.84 18.9641 18.9497 18.8801 19.057C18.8008 19.1597 18.7238 19.2623 18.6491 19.365C18.8871 19.2017 19.1484 19.0757 19.4331 18.987C19.7178 18.8983 20.0281 18.854 20.3641 18.854C20.7701 18.854 21.1528 18.9217 21.5121 19.057C21.8714 19.1877 22.1841 19.3813 22.4501 19.638C22.7208 19.89 22.9354 20.2027 23.0941 20.576C23.2528 20.9447 23.3321 21.367 23.3321 21.843C23.3321 22.305 23.2481 22.7343 23.0801 23.131C22.9121 23.5277 22.6764 23.873 22.3731 24.167C22.0744 24.461 21.7128 24.692 21.2881 24.86C20.8681 25.028 20.4038 25.112 19.8951 25.112C19.3911 25.112 18.9338 25.0327 18.5231 24.874C18.1124 24.7107 17.7624 24.482 17.4731 24.188C17.1884 23.8893 16.9668 23.53 16.8081 23.11C16.6541 22.6853 16.5771 22.2117 16.5771 21.689C16.5771 21.2503 16.6728 20.7837 16.8641 20.289C17.0601 19.7897 17.3704 19.2577 17.7951 18.693L20.3431 15.27C20.4084 15.186 20.4971 15.116 20.6091 15.06C20.7258 14.9993 20.8588 14.969 21.0081 14.969H22.1141L19.1391 18.728ZM31.5622 20.772H28.7062V23.782H27.6912V20.772H24.8492V19.827H27.6912V16.838H28.7062V19.827H31.5622V20.772Z" fill="#C1C2C4"/>
</svg>
