<svg width="28" height="29" viewBox="0 0 28 29" fill="none" xmlns="http://www.w3.org/2000/svg">
<path d="M22.1667 4H5.83333C5.21449 4 4.621 4.24583 4.18342 4.68342C3.74583 5.121 3.5 5.71449 3.5 6.33333V22.6667C3.5 23.2855 3.74583 23.879 4.18342 24.3166C4.621 24.7542 5.21449 25 5.83333 25H22.1667C22.7855 25 23.379 24.7542 23.8166 24.3166C24.2542 23.879 24.5 23.2855 24.5 22.6667V6.33333C24.5 5.71449 24.2542 5.121 23.8166 4.68342C23.379 4.24583 22.7855 4 22.1667 4ZM14 16.25H12.8333V18H11.0833V16.25H7.58333V11H9.33333V14.5H11.0833V11H12.8333V14.5H14V16.25ZM21 18H18.9L16.8 15.4333V18H15.1667V11H16.9167V13.5667L18.9 11H21L18.4333 14.5L21 18Z" fill="white"/>
</svg>
