<svg width="28" height="29" viewBox="0 0 28 29" fill="none" xmlns="http://www.w3.org/2000/svg">
<path d="M14.2327 11.0001L11.8993 8.66673H15.166C16.4494 8.66673 17.4993 9.71673 17.4993 11.0001V14.2667L15.166 11.9334V11.0001H14.2327ZM26.8327 11.0001V8.66673H22.166C20.8827 8.66673 19.8327 9.71673 19.8327 11.0001V13.3334C19.8327 14.6167 20.8827 15.6667 22.166 15.6667H24.4994V18.0001H21.2327L23.566 20.3334H24.4994C25.7827 20.3334 26.8327 19.2834 26.8327 18.0001V15.6667C26.8327 14.3834 25.7827 13.3334 24.4994 13.3334H22.166V11.0001H26.8327ZM25.7827 25.5834L24.266 27.1001L16.7993 19.6334C16.4493 19.9834 15.866 20.3334 15.166 20.3334H10.4993V13.2167L8.16602 10.8834V20.3334H5.83268V15.6667H3.49935V20.3334H1.16602V11.0001C1.16602 9.71673 2.21602 8.66673 3.49935 8.66673H5.94935L1.28268 4.00006L2.79935 2.4834L25.7827 25.5834ZM5.83268 11.0001H3.49935V13.3334H5.83268V11.0001ZM15.166 17.8834L12.8327 15.5501V18.0001H15.166V17.8834Z" fill="white"/>
</svg>
