<svg width="60" height="36" viewBox="0 0 60 36" fill="none" xmlns="http://www.w3.org/2000/svg">
<rect x="0.143066" y="0.143066" width="59" height="35" rx="17.5" fill="#CDF1FF" fill-opacity="0.3"/>
<path d="M22.1974 23.3459V25.1431H14.4259V23.3459H17.2722V15.1568C17.2722 14.833 17.2819 14.4994 17.3014 14.1562L15.2808 15.8465C15.1642 15.9372 15.0476 15.9954 14.9311 16.0214C14.821 16.0408 14.7141 16.0408 14.6105 16.0214C14.5134 16.0019 14.4259 15.9695 14.3482 15.9242C14.2705 15.8724 14.2122 15.8174 14.1734 15.7591L13.4156 14.7196L17.6996 11.0768H19.6716V23.3459H22.1974ZM24.7052 15.0111C24.8023 14.3375 24.9901 13.7482 25.2686 13.2431C25.5471 12.7314 25.8935 12.3073 26.308 11.9705C26.729 11.6273 27.2082 11.3714 27.7457 11.2031C28.2897 11.0282 28.8726 10.9408 29.4943 10.9408C30.1419 10.9408 30.7248 11.0347 31.2429 11.2225C31.7674 11.4038 32.2143 11.6596 32.5834 11.9899C32.9526 12.3137 33.2343 12.6958 33.4286 13.1362C33.6293 13.5766 33.7297 14.0526 33.7297 14.5642C33.7297 15.0111 33.6779 15.4061 33.5743 15.7494C33.4772 16.0861 33.3347 16.3808 33.1469 16.6334C32.9591 16.8859 32.7259 17.0996 32.4474 17.2745C32.169 17.4494 31.8549 17.5951 31.5052 17.7116C32.3471 17.9772 32.9753 18.3819 33.3897 18.9259C33.8042 19.4699 34.0114 20.1532 34.0114 20.9756C34.0114 21.6751 33.8819 22.2935 33.6229 22.8311C33.3638 23.3686 33.0141 23.8219 32.5737 24.1911C32.1333 24.5537 31.6217 24.829 31.0389 25.0168C30.4625 25.2046 29.8505 25.2985 29.2029 25.2985C28.497 25.2985 27.8817 25.2175 27.3572 25.0556C26.8326 24.8937 26.376 24.6541 25.9874 24.3368C25.5989 24.0194 25.2686 23.6309 24.9966 23.1711C24.7246 22.7113 24.4914 22.1802 24.2972 21.5779L25.356 21.1408C25.6345 21.0242 25.8935 20.9951 26.1332 21.0534C26.3793 21.1052 26.5573 21.2347 26.6674 21.4419C26.784 21.6686 26.9103 21.892 27.0463 22.1122C27.1888 22.3324 27.3572 22.5299 27.5514 22.7048C27.7457 22.8732 27.9724 23.0124 28.2314 23.1225C28.497 23.2261 28.8111 23.2779 29.1737 23.2779C29.5817 23.2779 29.9379 23.2132 30.2423 23.0836C30.5467 22.9476 30.7993 22.7728 31 22.5591C31.2073 22.3454 31.3594 22.109 31.4566 21.8499C31.5602 21.5844 31.612 21.3189 31.612 21.0534C31.612 20.7166 31.5764 20.4122 31.5052 20.1402C31.4339 19.8617 31.285 19.6254 31.0583 19.4311C30.8316 19.2368 30.5046 19.0846 30.0772 18.9745C29.6562 18.8644 29.0895 18.8094 28.3772 18.8094V17.0996C28.9665 17.0932 29.4554 17.0381 29.844 16.9345C30.2326 16.8309 30.5402 16.6884 30.7669 16.5071C31 16.3193 31.1619 16.0958 31.2526 15.8368C31.3433 15.5777 31.3886 15.2928 31.3886 14.9819C31.3886 14.3214 31.204 13.8194 30.8349 13.4762C30.4657 13.133 29.9735 12.9614 29.3583 12.9614C29.0733 12.9614 28.8111 13.0034 28.5714 13.0876C28.3318 13.1654 28.1149 13.2787 27.9206 13.4276C27.7328 13.5701 27.5741 13.7385 27.4446 13.9328C27.3151 14.1271 27.2179 14.3408 27.1532 14.5739C27.0431 14.8718 26.8973 15.0694 26.716 15.1665C26.5412 15.2636 26.2918 15.2863 25.968 15.2345L24.7052 15.0111ZM45.5438 19.5088H41.7747V23.5111H39.8221V19.5088H36.0724V17.7311H39.8221V13.7482H41.7747V17.7311H45.5438V19.5088Z" fill="#C1C2C4"/>
</svg>
