<svg width="104" height="28" viewBox="0 0 104 28" fill="none" xmlns="http://www.w3.org/2000/svg">
<rect x="0.5" y="0.5" width="103" height="27" rx="13.5" fill="#0F1E93"/>
<rect x="0.5" y="0.5" width="103" height="27" rx="13.5" stroke="#0F1E93"/>
<path d="M13.017 10.376V13.183H16.559V14.632H13.017V17.495H17.511V19H11.127V8.878H17.511V10.376H13.017ZM20.6853 17.138C20.8813 17.376 21.0937 17.544 21.3223 17.642C21.5557 17.74 21.8077 17.789 22.0783 17.789C22.3397 17.789 22.5753 17.74 22.7853 17.642C22.9953 17.544 23.1727 17.3947 23.3173 17.194C23.4667 16.9933 23.581 16.7413 23.6603 16.438C23.7397 16.13 23.7793 15.7683 23.7793 15.353C23.7793 14.933 23.7443 14.5783 23.6743 14.289C23.609 13.995 23.5133 13.757 23.3873 13.575C23.2613 13.393 23.1073 13.26 22.9253 13.176C22.748 13.092 22.545 13.05 22.3163 13.05C21.957 13.05 21.6513 13.127 21.3993 13.281C21.1473 13.4303 20.9093 13.6427 20.6853 13.918V17.138ZM20.5943 12.798C20.8883 12.4667 21.222 12.1983 21.5953 11.993C21.9687 11.7877 22.4073 11.685 22.9113 11.685C23.3033 11.685 23.6603 11.7667 23.9823 11.93C24.309 12.0933 24.589 12.3313 24.8223 12.644C25.0603 12.952 25.2423 13.3347 25.3683 13.792C25.499 14.2447 25.5643 14.765 25.5643 15.353C25.5643 15.8897 25.492 16.3867 25.3473 16.844C25.2027 17.3013 24.995 17.698 24.7243 18.034C24.4583 18.37 24.134 18.6337 23.7513 18.825C23.3733 19.0117 22.9487 19.105 22.4773 19.105C22.076 19.105 21.733 19.0443 21.4483 18.923C21.1637 18.797 20.9093 18.6243 20.6853 18.405V21.345H18.9563V11.818H20.0133C20.2373 11.818 20.3843 11.923 20.4543 12.133L20.5943 12.798ZM28.9054 11.818V19H27.1694V11.818H28.9054ZM29.1434 9.725C29.1434 9.87433 29.113 10.0143 29.0524 10.145C28.9917 10.2757 28.91 10.39 28.8074 10.488C28.7094 10.586 28.5927 10.6653 28.4574 10.726C28.322 10.782 28.1774 10.81 28.0234 10.81C27.874 10.81 27.7317 10.782 27.5964 10.726C27.4657 10.6653 27.3514 10.586 27.2534 10.488C27.1554 10.39 27.076 10.2757 27.0154 10.145C26.9594 10.0143 26.9314 9.87433 26.9314 9.725C26.9314 9.571 26.9594 9.42633 27.0154 9.291C27.076 9.15567 27.1554 9.039 27.2534 8.941C27.3514 8.843 27.4657 8.766 27.5964 8.71C27.7317 8.64933 27.874 8.619 28.0234 8.619C28.1774 8.619 28.322 8.64933 28.4574 8.71C28.5927 8.766 28.7094 8.843 28.8074 8.941C28.91 9.039 28.9917 9.15567 29.0524 9.291C29.113 9.42633 29.1434 9.571 29.1434 9.725ZM35.2501 13.218C35.2034 13.2927 35.1544 13.3463 35.1031 13.379C35.0517 13.407 34.9864 13.421 34.9071 13.421C34.8231 13.421 34.7321 13.3977 34.6341 13.351C34.5407 13.3043 34.4311 13.253 34.3051 13.197C34.1791 13.1363 34.0344 13.0827 33.8711 13.036C33.7124 12.9893 33.5234 12.966 33.3041 12.966C32.9634 12.966 32.6951 13.0383 32.4991 13.183C32.3077 13.3277 32.2121 13.5167 32.2121 13.75C32.2121 13.904 32.2611 14.0347 32.3591 14.142C32.4617 14.2447 32.5947 14.3357 32.7581 14.415C32.9261 14.4943 33.1151 14.5667 33.3251 14.632C33.5351 14.6927 33.7474 14.7603 33.9621 14.835C34.1814 14.9097 34.3961 14.996 34.6061 15.094C34.8161 15.1873 35.0027 15.3087 35.1661 15.458C35.3341 15.6027 35.4671 15.7777 35.5651 15.983C35.6677 16.1883 35.7191 16.4357 35.7191 16.725C35.7191 17.0703 35.6561 17.39 35.5301 17.684C35.4087 17.9733 35.2267 18.2253 34.9841 18.44C34.7414 18.65 34.4404 18.8157 34.0811 18.937C33.7264 19.0537 33.3157 19.112 32.8491 19.112C32.6017 19.112 32.3591 19.0887 32.1211 19.042C31.8877 19 31.6614 18.9393 31.4421 18.86C31.2274 18.7807 31.0267 18.6873 30.8401 18.58C30.6581 18.4727 30.4971 18.356 30.3571 18.23L30.7561 17.572C30.8074 17.4927 30.8681 17.432 30.9381 17.39C31.0081 17.348 31.0967 17.327 31.2041 17.327C31.3114 17.327 31.4117 17.3573 31.5051 17.418C31.6031 17.4787 31.7151 17.544 31.8411 17.614C31.9671 17.684 32.1141 17.7493 32.2821 17.81C32.4547 17.8707 32.6717 17.901 32.9331 17.901C33.1384 17.901 33.3134 17.8777 33.4581 17.831C33.6074 17.7797 33.7287 17.7143 33.8221 17.635C33.9201 17.5557 33.9901 17.4647 34.0321 17.362C34.0787 17.2547 34.1021 17.145 34.1021 17.033C34.1021 16.865 34.0507 16.7273 33.9481 16.62C33.8501 16.5127 33.7171 16.4193 33.5491 16.34C33.3857 16.2607 33.1967 16.1907 32.9821 16.13C32.7721 16.0647 32.5551 15.9947 32.3311 15.92C32.1117 15.8453 31.8947 15.759 31.6801 15.661C31.4701 15.5583 31.2811 15.43 31.1131 15.276C30.9497 15.122 30.8167 14.933 30.7141 14.709C30.6161 14.485 30.5671 14.2143 30.5671 13.897C30.5671 13.603 30.6254 13.323 30.7421 13.057C30.8587 12.791 31.0291 12.56 31.2531 12.364C31.4817 12.1633 31.7641 12.0047 32.1001 11.888C32.4407 11.7667 32.8327 11.706 33.2761 11.706C33.7707 11.706 34.2211 11.7877 34.6271 11.951C35.0331 12.1143 35.3714 12.329 35.6421 12.595L35.2501 13.218ZM40.3984 11.706C40.9304 11.706 41.4134 11.7923 41.8474 11.965C42.2861 12.1377 42.6594 12.3827 42.9674 12.7C43.2801 13.0173 43.5204 13.4047 43.6884 13.862C43.8564 14.3193 43.9404 14.8303 43.9404 15.395C43.9404 15.9643 43.8564 16.4777 43.6884 16.935C43.5204 17.3923 43.2801 17.782 42.9674 18.104C42.6594 18.426 42.2861 18.6733 41.8474 18.846C41.4134 19.0187 40.9304 19.105 40.3984 19.105C39.8617 19.105 39.3741 19.0187 38.9354 18.846C38.4967 18.6733 38.1211 18.426 37.8084 18.104C37.5004 17.782 37.2601 17.3923 37.0874 16.935C36.9194 16.4777 36.8354 15.9643 36.8354 15.395C36.8354 14.8303 36.9194 14.3193 37.0874 13.862C37.2601 13.4047 37.5004 13.0173 37.8084 12.7C38.1211 12.3827 38.4967 12.1377 38.9354 11.965C39.3741 11.7923 39.8617 11.706 40.3984 11.706ZM40.3984 17.775C40.9957 17.775 41.4367 17.5743 41.7214 17.173C42.0107 16.7717 42.1554 16.1837 42.1554 15.409C42.1554 14.6343 42.0107 14.044 41.7214 13.638C41.4367 13.232 40.9957 13.029 40.3984 13.029C39.7917 13.029 39.3414 13.2343 39.0474 13.645C38.7581 14.051 38.6134 14.639 38.6134 15.409C38.6134 16.179 38.7581 16.767 39.0474 17.173C39.3414 17.5743 39.7917 17.775 40.3984 17.775ZM49.9675 13.652C49.7715 13.414 49.5568 13.246 49.3235 13.148C49.0948 13.05 48.8475 13.001 48.5815 13.001C48.3201 13.001 48.0845 13.05 47.8745 13.148C47.6645 13.246 47.4848 13.3953 47.3355 13.596C47.1861 13.792 47.0718 14.044 46.9925 14.352C46.9131 14.6553 46.8735 15.0147 46.8735 15.43C46.8735 15.85 46.9061 16.207 46.9715 16.501C47.0415 16.7903 47.1395 17.0283 47.2655 17.215C47.3915 17.397 47.5455 17.53 47.7275 17.614C47.9095 17.6933 48.1125 17.733 48.3365 17.733C48.6958 17.733 49.0015 17.6583 49.2535 17.509C49.5055 17.3597 49.7435 17.1473 49.9675 16.872V13.652ZM51.6965 8.598V19H50.6395C50.4108 19 50.2661 18.895 50.2055 18.685L50.0585 17.992C49.7691 18.3233 49.4355 18.5917 49.0575 18.797C48.6841 19.0023 48.2478 19.105 47.7485 19.105C47.3565 19.105 46.9971 19.0233 46.6705 18.86C46.3438 18.6967 46.0615 18.461 45.8235 18.153C45.5901 17.8403 45.4081 17.4553 45.2775 16.998C45.1515 16.5407 45.0885 16.018 45.0885 15.43C45.0885 14.898 45.1608 14.4033 45.3055 13.946C45.4501 13.4887 45.6578 13.092 45.9285 12.756C46.1991 12.42 46.5235 12.1587 46.9015 11.972C47.2795 11.7807 47.7041 11.685 48.1755 11.685C48.5768 11.685 48.9198 11.748 49.2045 11.874C49.4891 12 49.7435 12.1703 49.9675 12.385V8.598H51.6965ZM58.2298 14.583C58.2298 14.359 58.1972 14.149 58.1318 13.953C58.0712 13.7523 57.9778 13.5773 57.8518 13.428C57.7258 13.2787 57.5648 13.162 57.3688 13.078C57.1775 12.9893 56.9535 12.945 56.6968 12.945C56.1975 12.945 55.8032 13.0873 55.5138 13.372C55.2292 13.6567 55.0472 14.0603 54.9678 14.583H58.2298ZM54.9328 15.626C54.9608 15.9947 55.0262 16.3143 55.1288 16.585C55.2315 16.851 55.3668 17.0727 55.5348 17.25C55.7028 17.4227 55.9012 17.5533 56.1298 17.642C56.3632 17.726 56.6198 17.768 56.8998 17.768C57.1798 17.768 57.4202 17.7353 57.6208 17.67C57.8262 17.6047 58.0035 17.5323 58.1528 17.453C58.3068 17.3737 58.4398 17.3013 58.5518 17.236C58.6685 17.1707 58.7805 17.138 58.8878 17.138C59.0325 17.138 59.1398 17.1917 59.2098 17.299L59.7068 17.929C59.5155 18.153 59.3008 18.342 59.0628 18.496C58.8248 18.6453 58.5752 18.7667 58.3138 18.86C58.0572 18.9487 57.7935 19.0117 57.5228 19.049C57.2568 19.0863 56.9978 19.105 56.7458 19.105C56.2465 19.105 55.7822 19.0233 55.3528 18.86C54.9235 18.692 54.5502 18.447 54.2328 18.125C53.9155 17.7983 53.6658 17.397 53.4838 16.921C53.3018 16.4403 53.2108 15.885 53.2108 15.255C53.2108 14.765 53.2902 14.3053 53.4488 13.876C53.6075 13.442 53.8338 13.0663 54.1278 12.749C54.4265 12.427 54.7882 12.1727 55.2128 11.986C55.6422 11.7993 56.1252 11.706 56.6618 11.706C57.1145 11.706 57.5322 11.7783 57.9148 11.923C58.2975 12.0677 58.6265 12.28 58.9018 12.56C59.1772 12.8353 59.3918 13.176 59.5458 13.582C59.7045 13.9833 59.7838 14.443 59.7838 14.961C59.7838 15.2223 59.7558 15.3997 59.6998 15.493C59.6438 15.5817 59.5365 15.626 59.3778 15.626H54.9328ZM68.9456 17.53C69.2956 17.53 69.5896 17.488 69.8276 17.404C70.0656 17.32 70.2546 17.208 70.3946 17.068C70.5393 16.928 70.642 16.7647 70.7026 16.578C70.768 16.3913 70.8006 16.193 70.8006 15.983C70.8006 15.7637 70.7656 15.5677 70.6956 15.395C70.6256 15.2177 70.516 15.0683 70.3666 14.947C70.2173 14.821 70.0236 14.7253 69.7856 14.66C69.5523 14.5947 69.27 14.562 68.9386 14.562H67.0416V17.53H68.9456ZM67.0416 10.334V13.26H68.5396C69.1836 13.26 69.669 13.1433 69.9956 12.91C70.327 12.6767 70.4926 12.3057 70.4926 11.797C70.4926 11.2697 70.3433 10.894 70.0446 10.67C69.746 10.446 69.2793 10.334 68.6446 10.334H67.0416ZM68.6446 8.878C69.3073 8.878 69.8743 8.941 70.3456 9.067C70.817 9.193 71.202 9.37267 71.5006 9.606C71.804 9.83933 72.0256 10.1217 72.1656 10.453C72.3056 10.7843 72.3756 11.1577 72.3756 11.573C72.3756 11.811 72.3406 12.0397 72.2706 12.259C72.2006 12.4737 72.091 12.6767 71.9416 12.868C71.797 13.0547 71.6103 13.225 71.3816 13.379C71.1576 13.533 70.8893 13.6637 70.5766 13.771C71.9673 14.0837 72.6626 14.835 72.6626 16.025C72.6626 16.4543 72.581 16.851 72.4176 17.215C72.2543 17.579 72.0163 17.894 71.7036 18.16C71.391 18.4213 71.006 18.6267 70.5486 18.776C70.0913 18.9253 69.5686 19 68.9806 19H65.1586V8.878H68.6446ZM77.9851 15.934C77.4858 15.9573 77.0658 16.0017 76.7251 16.067C76.3844 16.1277 76.1114 16.207 75.9061 16.305C75.7008 16.403 75.5538 16.5173 75.4651 16.648C75.3764 16.7787 75.3321 16.921 75.3321 17.075C75.3321 17.3783 75.4208 17.5953 75.5981 17.726C75.7801 17.8567 76.0158 17.922 76.3051 17.922C76.6598 17.922 76.9654 17.859 77.2221 17.733C77.4834 17.6023 77.7378 17.4063 77.9851 17.145V15.934ZM74.0231 12.819C74.8491 12.063 75.8431 11.685 77.0051 11.685C77.4251 11.685 77.8008 11.755 78.1321 11.895C78.4634 12.0303 78.7434 12.2217 78.9721 12.469C79.2008 12.7117 79.3734 13.0033 79.4901 13.344C79.6114 13.6847 79.6721 14.058 79.6721 14.464V19H78.8881C78.7248 19 78.5988 18.9767 78.5101 18.93C78.4214 18.8787 78.3514 18.7783 78.3001 18.629L78.1461 18.111C77.9641 18.2743 77.7868 18.419 77.6141 18.545C77.4414 18.6663 77.2618 18.769 77.0751 18.853C76.8884 18.937 76.6878 19 76.4731 19.042C76.2631 19.0887 76.0298 19.112 75.7731 19.112C75.4698 19.112 75.1898 19.0723 74.9331 18.993C74.6764 18.909 74.4548 18.7853 74.2681 18.622C74.0814 18.4587 73.9368 18.2557 73.8341 18.013C73.7314 17.7703 73.6801 17.488 73.6801 17.166C73.6801 16.984 73.7104 16.8043 73.7711 16.627C73.8318 16.445 73.9298 16.2723 74.0651 16.109C74.2051 15.9457 74.3848 15.7917 74.6041 15.647C74.8234 15.5023 75.0918 15.3763 75.4091 15.269C75.7311 15.1617 76.1044 15.0753 76.5291 15.01C76.9538 14.94 77.4391 14.898 77.9851 14.884V14.464C77.9851 13.9833 77.8824 13.6287 77.6771 13.4C77.4718 13.1667 77.1754 13.05 76.7881 13.05C76.5081 13.05 76.2748 13.0827 76.0881 13.148C75.9061 13.2133 75.7451 13.288 75.6051 13.372C75.4651 13.4513 75.3368 13.5237 75.2201 13.589C75.1081 13.6543 74.9821 13.687 74.8421 13.687C74.7208 13.687 74.6181 13.6567 74.5341 13.596C74.4501 13.5307 74.3824 13.456 74.3311 13.372L74.0231 12.819ZM83.1315 13.064C83.3555 12.6347 83.6215 12.2987 83.9295 12.056C84.2375 11.8087 84.6015 11.685 85.0215 11.685C85.3528 11.685 85.6188 11.7573 85.8195 11.902L85.7075 13.197C85.6842 13.281 85.6492 13.3417 85.6025 13.379C85.5605 13.4117 85.5022 13.428 85.4275 13.428C85.3575 13.428 85.2525 13.4163 85.1125 13.393C84.9772 13.3697 84.8442 13.358 84.7135 13.358C84.5222 13.358 84.3518 13.386 84.2025 13.442C84.0532 13.498 83.9178 13.5797 83.7965 13.687C83.6798 13.7897 83.5748 13.9157 83.4815 14.065C83.3928 14.2143 83.3088 14.3847 83.2295 14.576V19H81.5005V11.818H82.5155C82.6928 11.818 82.8165 11.8507 82.8865 11.916C82.9565 11.9767 83.0032 12.0887 83.0265 12.252L83.1315 13.064ZM93.1111 11.818V19H92.0541C91.8255 19 91.6808 18.895 91.6201 18.685L91.5011 18.111C91.2071 18.4097 90.8828 18.6523 90.5281 18.839C90.1735 19.021 89.7558 19.112 89.2751 19.112C88.8831 19.112 88.5355 19.0467 88.2321 18.916C87.9335 18.7807 87.6815 18.5917 87.4761 18.349C87.2708 18.1063 87.1145 17.8193 87.0071 17.488C86.9045 17.152 86.8531 16.7833 86.8531 16.382V11.818H88.5821V16.382C88.5821 16.8207 88.6825 17.1613 88.8831 17.404C89.0885 17.642 89.3941 17.761 89.8001 17.761C90.0988 17.761 90.3788 17.6957 90.6401 17.565C90.9015 17.4297 91.1488 17.2453 91.3821 17.012V11.818H93.1111Z" fill="white"/>
</svg>
