<svg width="40" height="40" viewBox="0 0 40 40" fill="none" xmlns="http://www.w3.org/2000/svg">
<path d="M16.6674 20V36.6667H13.3341V23.3333H10.0008V20H16.6674ZM30.0008 23.3333V33.3333C30.0008 35.1833 28.5174 36.6667 26.6674 36.6667H23.3341C22.4501 36.6667 21.6022 36.3155 20.9771 35.6904C20.352 35.0652 20.0008 34.2174 20.0008 33.3333V23.3333C20.0008 22.4493 20.352 21.6014 20.9771 20.9763C21.6022 20.3512 22.4501 20 23.3341 20H26.6674C28.5174 20 30.0008 21.5 30.0008 23.3333ZM23.3341 23.3333V33.3333H26.6674V23.3333H23.3341ZM19.1674 5C23.5841 5 27.5841 6.66667 30.6674 9.33333L35.0008 5V16.6667H23.3341L27.7008 12.3C25.3841 10.3667 22.4341 9.16667 19.1674 9.16667C13.2674 9.16667 8.25078 13.0167 6.50078 18.3333L2.55078 17.0333C4.86745 10.05 11.4174 5 19.1674 5Z" fill="white"/>
</svg>
