<svg width="28" height="29" viewBox="0 0 28 29" fill="none" xmlns="http://www.w3.org/2000/svg">
<path d="M14.0006 2.83301C15.5327 2.83301 17.0498 3.13478 18.4653 3.72108C19.8808 4.30738 21.1669 5.16674 22.2502 6.25009C23.3336 7.33344 24.1929 8.61957 24.7792 10.035C25.3655 11.4505 25.6673 12.9676 25.6673 14.4997C25.6673 17.5939 24.4381 20.5613 22.2502 22.7492C20.0623 24.9372 17.0948 26.1663 14.0006 26.1663C12.4686 26.1663 10.9515 25.8646 9.53601 25.2783C8.12054 24.692 6.83442 23.8326 5.75107 22.7492C3.56315 20.5613 2.33398 17.5939 2.33398 14.4997C2.33398 11.4055 3.56315 8.43802 5.75107 6.25009C7.93899 4.06217 10.9065 2.83301 14.0006 2.83301ZM14.0006 5.16634C13.2271 5.16634 12.4852 5.47363 11.9383 6.02061C11.3913 6.56759 11.084 7.30946 11.084 8.08301C11.084 8.85655 11.3913 9.59842 11.9383 10.1454C12.4852 10.6924 13.2271 10.9997 14.0006 10.9997C14.7742 10.9997 15.5161 10.6924 16.063 10.1454C16.61 9.59842 16.9173 8.85655 16.9173 8.08301C16.9173 7.30946 16.61 6.56759 16.063 6.02061C15.5161 5.47363 14.7742 5.16634 14.0006 5.16634ZM5.13398 11.618C4.63232 13.1463 5.47232 14.7913 7.00065 15.293C8.54065 15.783 10.1856 14.9547 10.6756 13.4147C11.1773 11.8863 10.3373 10.2413 8.80898 9.73967C7.28065 9.24967 5.62398 10.078 5.13398 11.618ZM22.879 11.583C22.3773 10.078 20.7323 9.24967 19.204 9.73967C17.664 10.2297 16.824 11.8747 17.3256 13.4147C17.8273 14.943 19.4723 15.783 21.0006 15.2813C22.529 14.7913 23.369 13.1347 22.879 11.583ZM8.52898 22.0363C9.82398 22.993 11.6673 22.7013 12.6006 21.3947C13.5456 20.088 13.254 18.268 11.9473 17.323C10.6523 16.378 8.82065 16.6697 7.87565 17.9647C6.93065 19.2713 7.22232 21.0913 8.52898 22.0363ZM19.484 22.0363C20.7906 21.0913 21.0823 19.2713 20.1373 17.9647C19.1923 16.658 17.3606 16.3663 16.0656 17.323C14.759 18.268 14.4673 20.088 15.4123 21.3947C16.334 22.7013 18.189 22.9813 19.484 22.0363ZM14.0006 12.7497C13.5365 12.7497 13.0914 12.934 12.7632 13.2622C12.435 13.5904 12.2506 14.0355 12.2506 14.4997C12.2506 14.9638 12.435 15.4089 12.7632 15.7371C13.0914 16.0653 13.5365 16.2497 14.0006 16.2497C14.4648 16.2497 14.9099 16.0653 15.2381 15.7371C15.5663 15.4089 15.7506 14.9638 15.7506 14.4997C15.7506 14.0355 15.5663 13.5904 15.2381 13.2622C14.9099 12.934 14.4648 12.7497 14.0006 12.7497Z" fill="white"/>
</svg>
