<svg width="44" height="44" viewBox="0 0 44 44" fill="none" xmlns="http://www.w3.org/2000/svg">
<rect x="0.498047" y="0.499023" width="43" height="43" rx="21.5" stroke="#C1C2C4"/>
<path d="M21.998 13.999L19.908 16.089L21.998 18.179M14.268 12.999L12.998 14.269L17.728 18.999H12.998V24.999H16.998L21.998 29.999V23.269L26.248 27.529C25.578 28.039 24.828 28.459 23.998 28.699V30.769C25.378 30.449 26.628 29.819 27.678 28.959L29.728 30.999L30.998 29.729L21.998 20.729M28.998 21.999C28.998 22.939 28.798 23.819 28.458 24.639L29.968 26.149C30.618 24.909 30.998 23.499 30.998 21.999C30.998 17.719 27.998 14.139 23.998 13.229V15.289C26.888 16.149 28.998 18.829 28.998 21.999ZM26.498 21.999C26.498 20.229 25.498 18.709 23.998 17.969V20.179L26.448 22.629C26.498 22.429 26.498 22.209 26.498 21.999Z" fill="#C1C2C4"/>
</svg>
