<svg width="100" height="100" viewBox="0 0 100 100" fill="none" xmlns="http://www.w3.org/2000/svg">
<path d="M54.1673 66.6666V33.3333H62.5006V66.6666H54.1673ZM37.5006 66.6666V33.3333H45.834V66.6666H37.5006ZM50.0007 8.33325C55.4724 8.33325 60.8906 9.41099 65.9458 11.5049C71.001 13.5989 75.5943 16.668 79.4634 20.5371C83.3325 24.4062 86.4017 28.9995 88.4956 34.0548C90.5896 39.11 91.6673 44.5282 91.6673 49.9999C91.6673 61.0506 87.2775 71.6487 79.4634 79.4627C71.6494 87.2767 61.0513 91.6666 50.0007 91.6666C44.5289 91.6666 39.1107 90.5888 34.0555 88.4949C29.0003 86.401 24.407 83.3318 20.5379 79.4627C12.7239 71.6487 8.33398 61.0506 8.33398 49.9999C8.33398 38.9492 12.7239 28.3512 20.5379 20.5371C28.3519 12.7231 38.95 8.33325 50.0007 8.33325ZM50.0007 16.6666C41.1601 16.6666 32.6816 20.1785 26.4304 26.4297C20.1792 32.6809 16.6673 41.1594 16.6673 49.9999C16.6673 58.8405 20.1792 67.3189 26.4304 73.5701C32.6816 79.8214 41.1601 83.3333 50.0007 83.3333C58.8412 83.3333 67.3197 79.8214 73.5709 73.5701C79.8221 67.3189 83.334 58.8405 83.334 49.9999C83.334 41.1594 79.8221 32.6809 73.5709 26.4297C67.3197 20.1785 58.8412 16.6666 50.0007 16.6666Z" fill="#C1C2C4"/>
</svg>
