<svg width="67" height="22" viewBox="0 0 67 22" fill="none" xmlns="http://www.w3.org/2000/svg">
<rect x="0.5" y="0.5" width="66" height="21" rx="3.5" stroke="#C1C2C4"/>
<path d="M14.848 11.48C15.2907 11.48 15.68 11.4213 16.016 11.304C16.3573 11.1867 16.6427 11.024 16.872 10.816C17.1067 10.6027 17.2827 10.3493 17.4 10.056C17.5173 9.76267 17.576 9.44 17.576 9.088C17.576 8.35733 17.3493 7.78667 16.896 7.376C16.448 6.96533 15.7653 6.76 14.848 6.76H13.008V11.48H14.848ZM14.848 5.536C15.5733 5.536 16.2027 5.62133 16.736 5.792C17.2747 5.95733 17.72 6.19467 18.072 6.504C18.424 6.81333 18.6853 7.18667 18.856 7.624C19.032 8.06133 19.12 8.54933 19.12 9.088C19.12 9.62133 19.0267 10.1093 18.84 10.552C18.6533 10.9947 18.3787 11.376 18.016 11.696C17.6587 12.016 17.2133 12.2667 16.68 12.448C16.152 12.624 15.5413 12.712 14.848 12.712H13.008V17H11.464V5.536H14.848ZM30.5854 11.488V15.888C30.0094 16.304 29.3934 16.616 28.7374 16.824C28.0867 17.0267 27.372 17.128 26.5934 17.128C25.6707 17.128 24.8387 16.9867 24.0974 16.704C23.356 16.416 22.7214 16.016 22.1934 15.504C21.6707 14.9867 21.268 14.368 20.9854 13.648C20.7027 12.928 20.5614 12.136 20.5614 11.272C20.5614 10.3973 20.6974 9.6 20.9694 8.88C21.2467 8.16 21.6387 7.544 22.1454 7.032C22.652 6.51467 23.268 6.11467 23.9934 5.832C24.7187 5.54933 25.5294 5.408 26.4254 5.408C26.8787 5.408 27.3 5.44267 27.6894 5.512C28.0787 5.576 28.4387 5.672 28.7694 5.8C29.1 5.92267 29.4067 6.07467 29.6894 6.256C29.972 6.432 30.236 6.632 30.4814 6.856L30.0414 7.56C29.972 7.66667 29.8814 7.736 29.7694 7.768C29.6627 7.79467 29.5427 7.768 29.4094 7.688C29.2814 7.61333 29.1347 7.52267 28.9694 7.416C28.804 7.30933 28.6014 7.208 28.3614 7.112C28.1267 7.01067 27.8467 6.92533 27.5214 6.856C27.2014 6.78667 26.82 6.752 26.3774 6.752C25.732 6.752 25.148 6.85867 24.6254 7.072C24.1027 7.28 23.6574 7.58133 23.2894 7.976C22.9214 8.36533 22.6387 8.84 22.4414 9.4C22.244 9.95467 22.1454 10.5787 22.1454 11.272C22.1454 11.992 22.2467 12.6373 22.4494 13.208C22.6574 13.7733 22.9507 14.256 23.3294 14.656C23.7134 15.0507 24.1774 15.352 24.7214 15.56C25.2654 15.768 25.876 15.872 26.5534 15.872C27.0867 15.872 27.5587 15.8133 27.9694 15.696C28.3854 15.5733 28.7907 15.4053 29.1854 15.192V12.672H27.4014C27.3 12.672 27.2174 12.6427 27.1534 12.584C27.0947 12.5253 27.0654 12.4533 27.0654 12.368V11.488H30.5854ZM32.6969 11.6H36.6489V12.808H32.6969V11.6ZM45.9784 15.912V17H39.8344V15.912H42.2904V8.096C42.2904 7.86133 42.2984 7.624 42.3144 7.384L40.2744 9.136C40.205 9.19467 40.1357 9.232 40.0664 9.248C39.997 9.25867 39.933 9.25867 39.8744 9.248C39.8157 9.23733 39.7597 9.216 39.7064 9.184C39.6584 9.152 39.621 9.11733 39.5944 9.08L39.1464 8.464L42.5624 5.512H43.7224V15.912H45.9784ZM48.3556 8.64C48.4303 8.11733 48.5743 7.656 48.7876 7.256C49.001 6.85067 49.2703 6.512 49.5956 6.24C49.9263 5.968 50.3023 5.76267 50.7236 5.624C51.1503 5.48 51.609 5.408 52.0996 5.408C52.585 5.408 53.033 5.47733 53.4436 5.616C53.8543 5.75467 54.2063 5.952 54.4996 6.208C54.7983 6.464 55.0303 6.77333 55.1956 7.136C55.361 7.49867 55.4436 7.90133 55.4436 8.344C55.4436 8.70667 55.3956 9.032 55.2996 9.32C55.209 9.60267 55.0756 9.85067 54.8996 10.064C54.729 10.2773 54.521 10.4587 54.2756 10.608C54.0303 10.7573 53.7556 10.88 53.4516 10.976C54.1983 11.168 54.7583 11.4987 55.1316 11.968C55.5103 12.432 55.6996 13.0133 55.6996 13.712C55.6996 14.24 55.5983 14.7147 55.3956 15.136C55.1983 15.5573 54.9263 15.9173 54.5796 16.216C54.233 16.5093 53.8276 16.736 53.3636 16.896C52.905 17.0507 52.4116 17.128 51.8836 17.128C51.2756 17.128 50.7556 17.0533 50.3236 16.904C49.8916 16.7493 49.5263 16.5387 49.2276 16.272C48.929 16.0053 48.6836 15.6907 48.4916 15.328C48.2996 14.96 48.137 14.5627 48.0036 14.136L48.6196 13.88C48.7796 13.8107 48.9343 13.792 49.0836 13.824C49.2383 13.856 49.3503 13.944 49.4196 14.088C49.489 14.2373 49.5743 14.416 49.6756 14.624C49.7823 14.832 49.9263 15.032 50.1076 15.224C50.289 15.416 50.5183 15.5787 50.7956 15.712C51.0783 15.8453 51.4356 15.912 51.8676 15.912C52.2676 15.912 52.617 15.848 52.9156 15.72C53.2196 15.5867 53.4703 15.416 53.6676 15.208C53.8703 15 54.0223 14.768 54.1236 14.512C54.225 14.256 54.2756 14.0027 54.2756 13.752C54.2756 13.4427 54.2356 13.16 54.1556 12.904C54.0756 12.648 53.9263 12.4267 53.7076 12.24C53.489 12.0533 53.1876 11.9067 52.8036 11.8C52.425 11.6933 51.937 11.64 51.3396 11.64V10.608C51.8303 10.6027 52.2463 10.5493 52.5876 10.448C52.9343 10.3467 53.2143 10.208 53.4276 10.032C53.6463 9.856 53.8036 9.64533 53.8996 9.4C54.001 9.15467 54.0516 8.88267 54.0516 8.584C54.0516 8.25333 53.9983 7.96533 53.8916 7.72C53.7903 7.47467 53.649 7.272 53.4676 7.112C53.2863 6.952 53.0703 6.832 52.8196 6.752C52.5743 6.672 52.3076 6.632 52.0196 6.632C51.7316 6.632 51.4623 6.67467 51.2116 6.76C50.9663 6.84533 50.7476 6.96533 50.5556 7.12C50.369 7.26933 50.2116 7.448 50.0836 7.656C49.9556 7.864 49.865 8.09333 49.8116 8.344C49.7423 8.53067 49.6543 8.656 49.5476 8.72C49.4463 8.77867 49.297 8.79467 49.0996 8.768L48.3556 8.64Z" fill="white"/>
</svg>
