<svg width="40" height="40" viewBox="0 0 40 40" fill="none" xmlns="http://www.w3.org/2000/svg">
<path d="M11.666 8.33333H34.9993V11.6667H11.666V8.33333ZM11.666 21.6667V18.3333H34.9993V21.6667H11.666ZM6.66602 7.5C7.32906 7.5 7.96494 7.76339 8.43378 8.23223C8.90262 8.70107 9.16602 9.33696 9.16602 10C9.16602 10.663 8.90262 11.2989 8.43378 11.7678C7.96494 12.2366 7.32906 12.5 6.66602 12.5C6.00297 12.5 5.36709 12.2366 4.89825 11.7678C4.42941 11.2989 4.16602 10.663 4.16602 10C4.16602 9.33696 4.42941 8.70107 4.89825 8.23223C5.36709 7.76339 6.00297 7.5 6.66602 7.5ZM6.66602 17.5C7.32906 17.5 7.96494 17.7634 8.43378 18.2322C8.90262 18.7011 9.16602 19.337 9.16602 20C9.16602 20.663 8.90262 21.2989 8.43378 21.7678C7.96494 22.2366 7.32906 22.5 6.66602 22.5C6.00297 22.5 5.36709 22.2366 4.89825 21.7678C4.42941 21.2989 4.16602 20.663 4.16602 20C4.16602 19.337 4.42941 18.7011 4.89825 18.2322C5.36709 17.7634 6.00297 17.5 6.66602 17.5ZM11.666 31.6667V28.3333H34.9993V31.6667H11.666ZM6.66602 27.5C7.32906 27.5 7.96494 27.7634 8.43378 28.2322C8.90262 28.7011 9.16602 29.337 9.16602 30C9.16602 30.663 8.90262 31.2989 8.43378 31.7678C7.96494 32.2366 7.32906 32.5 6.66602 32.5C6.00297 32.5 5.36709 32.2366 4.89825 31.7678C4.42941 31.2989 4.16602 30.663 4.16602 30C4.16602 29.337 4.42941 28.7011 4.89825 28.2322C5.36709 27.7634 6.00297 27.5 6.66602 27.5Z" fill="white"/>
</svg>
