<svg width="78" height="28" viewBox="0 0 78 28" fill="none" xmlns="http://www.w3.org/2000/svg">
<rect x="0.5" y="0.5" width="77" height="27" rx="13.5" fill="#B7A207"/>
<rect x="0.5" y="0.5" width="77" height="27" rx="13.5" stroke="#B7A207"/>
<path d="M14.417 13.967C14.7623 13.967 15.0633 13.925 15.32 13.841C15.5767 13.7523 15.789 13.6287 15.957 13.47C16.1297 13.3067 16.258 13.1107 16.342 12.882C16.426 12.6487 16.468 12.3897 16.468 12.105C16.468 11.8343 16.426 11.5893 16.342 11.37C16.258 11.1507 16.132 10.964 15.964 10.81C15.796 10.656 15.5837 10.5393 15.327 10.46C15.0703 10.376 14.767 10.334 14.417 10.334H13.01V13.967H14.417ZM14.417 8.878C15.0937 8.878 15.6793 8.95733 16.174 9.116C16.6687 9.27467 17.077 9.49633 17.399 9.781C17.721 10.0657 17.959 10.4063 18.113 10.803C18.2717 11.1997 18.351 11.6337 18.351 12.105C18.351 12.595 18.2693 13.0453 18.106 13.456C17.9427 13.862 17.6977 14.212 17.371 14.506C17.0443 14.8 16.6337 15.0287 16.139 15.192C15.649 15.3553 15.075 15.437 14.417 15.437H13.01V19H11.127V8.878H14.417ZM21.2436 13.064C21.4676 12.6347 21.7336 12.2987 22.0416 12.056C22.3496 11.8087 22.7136 11.685 23.1336 11.685C23.4649 11.685 23.7309 11.7573 23.9316 11.902L23.8196 13.197C23.7963 13.281 23.7613 13.3417 23.7146 13.379C23.6726 13.4117 23.6143 13.428 23.5396 13.428C23.4696 13.428 23.3646 13.4163 23.2246 13.393C23.0893 13.3697 22.9563 13.358 22.8256 13.358C22.6343 13.358 22.4639 13.386 22.3146 13.442C22.1653 13.498 22.0299 13.5797 21.9086 13.687C21.7919 13.7897 21.6869 13.9157 21.5936 14.065C21.5049 14.2143 21.4209 14.3847 21.3416 14.576V19H19.6126V11.818H20.6276C20.8049 11.818 20.9286 11.8507 20.9986 11.916C21.0686 11.9767 21.1153 12.0887 21.1386 12.252L21.2436 13.064ZM29.4572 14.583C29.4572 14.359 29.4245 14.149 29.3592 13.953C29.2985 13.7523 29.2052 13.5773 29.0792 13.428C28.9532 13.2787 28.7922 13.162 28.5962 13.078C28.4048 12.9893 28.1808 12.945 27.9242 12.945C27.4248 12.945 27.0305 13.0873 26.7412 13.372C26.4565 13.6567 26.2745 14.0603 26.1952 14.583H29.4572ZM26.1602 15.626C26.1882 15.9947 26.2535 16.3143 26.3562 16.585C26.4588 16.851 26.5942 17.0727 26.7622 17.25C26.9302 17.4227 27.1285 17.5533 27.3572 17.642C27.5905 17.726 27.8472 17.768 28.1272 17.768C28.4072 17.768 28.6475 17.7353 28.8482 17.67C29.0535 17.6047 29.2308 17.5323 29.3802 17.453C29.5342 17.3737 29.6672 17.3013 29.7792 17.236C29.8958 17.1707 30.0078 17.138 30.1152 17.138C30.2598 17.138 30.3672 17.1917 30.4372 17.299L30.9342 17.929C30.7428 18.153 30.5282 18.342 30.2902 18.496C30.0522 18.6453 29.8025 18.7667 29.5412 18.86C29.2845 18.9487 29.0208 19.0117 28.7502 19.049C28.4842 19.0863 28.2252 19.105 27.9732 19.105C27.4738 19.105 27.0095 19.0233 26.5802 18.86C26.1508 18.692 25.7775 18.447 25.4602 18.125C25.1428 17.7983 24.8932 17.397 24.7112 16.921C24.5292 16.4403 24.4382 15.885 24.4382 15.255C24.4382 14.765 24.5175 14.3053 24.6762 13.876C24.8348 13.442 25.0612 13.0663 25.3552 12.749C25.6538 12.427 26.0155 12.1727 26.4402 11.986C26.8695 11.7993 27.3525 11.706 27.8892 11.706C28.3418 11.706 28.7595 11.7783 29.1422 11.923C29.5248 12.0677 29.8538 12.28 30.1292 12.56C30.4045 12.8353 30.6192 13.176 30.7732 13.582C30.9318 13.9833 31.0112 14.443 31.0112 14.961C31.0112 15.2223 30.9832 15.3997 30.9272 15.493C30.8712 15.5817 30.7638 15.626 30.6052 15.626H26.1602ZM32.5087 19V11.818H33.5657C33.7897 11.818 33.9367 11.923 34.0067 12.133L34.1187 12.665C34.2447 12.525 34.3754 12.3967 34.5107 12.28C34.6507 12.1633 34.7977 12.063 34.9517 11.979C35.1104 11.895 35.2784 11.8297 35.4557 11.783C35.6377 11.7317 35.836 11.706 36.0507 11.706C36.5034 11.706 36.8744 11.8297 37.1637 12.077C37.4577 12.3197 37.677 12.644 37.8217 13.05C37.9337 12.812 38.0737 12.609 38.2417 12.441C38.4097 12.2683 38.594 12.1283 38.7947 12.021C38.9954 11.9137 39.2077 11.8343 39.4317 11.783C39.6604 11.7317 39.889 11.706 40.1177 11.706C40.5144 11.706 40.8667 11.7667 41.1747 11.888C41.4827 12.0093 41.7417 12.1867 41.9517 12.42C42.1617 12.6533 42.3204 12.938 42.4277 13.274C42.5397 13.61 42.5957 13.995 42.5957 14.429V19H40.8667V14.429C40.8667 13.9717 40.7664 13.6287 40.5657 13.4C40.365 13.1667 40.071 13.05 39.6837 13.05C39.5064 13.05 39.3407 13.0803 39.1867 13.141C39.0374 13.2017 38.9044 13.2903 38.7877 13.407C38.6757 13.519 38.587 13.6613 38.5217 13.834C38.4564 14.0067 38.4237 14.205 38.4237 14.429V19H36.6877V14.429C36.6877 13.9483 36.5897 13.5983 36.3937 13.379C36.2024 13.1597 35.92 13.05 35.5467 13.05C35.2947 13.05 35.059 13.113 34.8397 13.239C34.625 13.3603 34.4244 13.5283 34.2377 13.743V19H32.5087ZM46.2312 11.818V19H44.4952V11.818H46.2312ZM46.4692 9.725C46.4692 9.87433 46.4388 10.0143 46.3782 10.145C46.3175 10.2757 46.2358 10.39 46.1332 10.488C46.0352 10.586 45.9185 10.6653 45.7832 10.726C45.6478 10.782 45.5032 10.81 45.3492 10.81C45.1998 10.81 45.0575 10.782 44.9222 10.726C44.7915 10.6653 44.6772 10.586 44.5792 10.488C44.4812 10.39 44.4018 10.2757 44.3412 10.145C44.2852 10.0143 44.2572 9.87433 44.2572 9.725C44.2572 9.571 44.2852 9.42633 44.3412 9.291C44.4018 9.15567 44.4812 9.039 44.5792 8.941C44.6772 8.843 44.7915 8.766 44.9222 8.71C45.0575 8.64933 45.1998 8.619 45.3492 8.619C45.5032 8.619 45.6478 8.64933 45.7832 8.71C45.9185 8.766 46.0352 8.843 46.1332 8.941C46.2358 9.039 46.3175 9.15567 46.3782 9.291C46.4388 9.42633 46.4692 9.571 46.4692 9.725ZM54.3818 11.818V19H53.3248C53.0962 19 52.9515 18.895 52.8908 18.685L52.7718 18.111C52.4778 18.4097 52.1535 18.6523 51.7988 18.839C51.4442 19.021 51.0265 19.112 50.5458 19.112C50.1538 19.112 49.8062 19.0467 49.5028 18.916C49.2042 18.7807 48.9522 18.5917 48.7468 18.349C48.5415 18.1063 48.3852 17.8193 48.2778 17.488C48.1752 17.152 48.1238 16.7833 48.1238 16.382V11.818H49.8528V16.382C49.8528 16.8207 49.9532 17.1613 50.1538 17.404C50.3592 17.642 50.6648 17.761 51.0708 17.761C51.3695 17.761 51.6495 17.6957 51.9108 17.565C52.1722 17.4297 52.4195 17.2453 52.6528 17.012V11.818H54.3818ZM56.2962 19V11.818H57.3532C57.5772 11.818 57.7242 11.923 57.7942 12.133L57.9062 12.665C58.0322 12.525 58.1629 12.3967 58.2982 12.28C58.4382 12.1633 58.5852 12.063 58.7392 11.979C58.8979 11.895 59.0659 11.8297 59.2432 11.783C59.4252 11.7317 59.6235 11.706 59.8382 11.706C60.2909 11.706 60.6619 11.8297 60.9512 12.077C61.2452 12.3197 61.4645 12.644 61.6092 13.05C61.7212 12.812 61.8612 12.609 62.0292 12.441C62.1972 12.2683 62.3815 12.1283 62.5822 12.021C62.7829 11.9137 62.9952 11.8343 63.2192 11.783C63.4479 11.7317 63.6765 11.706 63.9052 11.706C64.3019 11.706 64.6542 11.7667 64.9622 11.888C65.2702 12.0093 65.5292 12.1867 65.7392 12.42C65.9492 12.6533 66.1079 12.938 66.2152 13.274C66.3272 13.61 66.3832 13.995 66.3832 14.429V19H64.6542V14.429C64.6542 13.9717 64.5539 13.6287 64.3532 13.4C64.1525 13.1667 63.8585 13.05 63.4712 13.05C63.2939 13.05 63.1282 13.0803 62.9742 13.141C62.8249 13.2017 62.6919 13.2903 62.5752 13.407C62.4632 13.519 62.3745 13.6613 62.3092 13.834C62.2439 14.0067 62.2112 14.205 62.2112 14.429V19H60.4752V14.429C60.4752 13.9483 60.3772 13.5983 60.1812 13.379C59.9899 13.1597 59.7075 13.05 59.3342 13.05C59.0822 13.05 58.8465 13.113 58.6272 13.239C58.4125 13.3603 58.2119 13.5283 58.0252 13.743V19H56.2962Z" fill="white"/>
</svg>
