<svg width="40" height="40" viewBox="0 0 40 40" fill="none" xmlns="http://www.w3.org/2000/svg">
<path d="M20.8333 5C28.5833 5 35.1333 10.05 37.45 17.0333L33.5 18.3333C31.75 13.0167 26.7333 9.16667 20.8333 9.16667C17.5667 9.16667 14.6167 10.3667 12.3 12.3L16.6667 16.6667H5V5L9.33333 9.33333C12.4167 6.66667 16.4167 5 20.8333 5ZM16.6667 20V36.6667H13.3333V23.3333H10V20H16.6667ZM30 23.3333V33.3333C30 35.1833 28.5167 36.6667 26.6667 36.6667H23.3333C22.4493 36.6667 21.6014 36.3155 20.9763 35.6904C20.3512 35.0652 20 34.2174 20 33.3333V23.3333C20 22.4493 20.3512 21.6014 20.9763 20.9763C21.6014 20.3512 22.4493 20 23.3333 20H26.6667C28.5167 20 30 21.5 30 23.3333ZM23.3333 23.3333V33.3333H26.6667V23.3333H23.3333Z" fill="white"/>
</svg>
