<svg width="40" height="40" viewBox="0 0 40 40" fill="none" xmlns="http://www.w3.org/2000/svg">
<path d="M20.0007 26.6667C18.6746 26.6667 17.4028 26.1399 16.4651 25.2022C15.5274 24.2645 15.0007 22.9927 15.0007 21.6667C15.0007 19.8 16.0173 18.1667 17.5007 17.3167L33.684 7.95L24.4673 23.9167C23.634 25.55 21.9507 26.6667 20.0007 26.6667ZM20.0007 5C23.0173 5 25.834 5.83333 28.284 7.2L24.784 9.21667C23.334 8.65 21.6673 8.33333 20.0007 8.33333C16.4644 8.33333 13.073 9.73809 10.5726 12.2386C8.07208 14.7391 6.66732 18.1304 6.66732 21.6667C6.66732 25.35 8.15065 28.6833 10.5673 31.0833H10.584C11.234 31.7333 11.234 32.7833 10.584 33.4333C9.93398 34.0833 8.86732 34.0833 8.21732 33.45C5.20065 30.4333 3.33398 26.2667 3.33398 21.6667C3.33398 17.2464 5.08993 13.0072 8.21554 9.88155C11.3411 6.75595 15.5804 5 20.0007 5ZM36.6673 21.6667C36.6673 26.2667 34.8006 30.4333 31.784 33.45C31.134 34.0833 30.084 34.0833 29.434 33.4333C28.784 32.7833 28.784 31.7333 29.434 31.0833C31.8507 28.6667 33.334 25.35 33.334 21.6667C33.334 20 33.0173 18.3333 32.434 16.8333L34.4507 13.3333C35.834 15.8333 36.6673 18.6333 36.6673 21.6667Z" fill="white"/>
</svg>
