<svg width="40" height="40" viewBox="0 0 40 40" fill="none" xmlns="http://www.w3.org/2000/svg">
<path d="M33.334 3.33325C34.218 3.33325 35.0659 3.68444 35.691 4.30956C36.3161 4.93468 36.6673 5.78253 36.6673 6.66659V26.6666C36.6673 27.5506 36.3161 28.3985 35.691 29.0236C35.0659 29.6487 34.218 29.9999 33.334 29.9999H10.0007L3.33398 36.6666V6.66659C3.33398 4.81659 4.83398 3.33325 6.66732 3.33325H33.334ZM6.66732 6.66659V28.6166L8.61732 26.6666H33.334V6.66659H6.66732ZM10.0007 11.6666H30.0007V14.9999H10.0007V11.6666ZM10.0007 18.3333H25.0007V21.6666H10.0007V18.3333Z" fill="white"/>
</svg>
