<svg width="28" height="29" viewBox="0 0 28 29" fill="none" xmlns="http://www.w3.org/2000/svg">
<path d="M21.0006 9.83301H7.00065V7.49967H21.0006V9.83301ZM21.0006 13.333H7.00065V10.9997H21.0006V13.333ZM21.0006 16.833H7.00065V14.4997H21.0006V16.833ZM25.6673 5.16634C25.6673 4.5475 25.4215 3.95401 24.9839 3.51643C24.5463 3.07884 23.9528 2.83301 23.334 2.83301H4.66732C4.04848 2.83301 3.45499 3.07884 3.0174 3.51643C2.57982 3.95401 2.33398 4.5475 2.33398 5.16634V19.1663C2.33398 19.7852 2.57982 20.3787 3.0174 20.8163C3.45499 21.2538 4.04848 21.4997 4.66732 21.4997H21.0006L25.6673 26.1663V5.16634Z" fill="white"/>
</svg>
