<svg width="28" height="29" viewBox="0 0 28 29" fill="none" xmlns="http://www.w3.org/2000/svg">
<path d="M3.49935 5.16699H23.3327C23.9515 5.16699 24.545 5.41282 24.9826 5.85041C25.4202 6.28799 25.666 6.88149 25.666 7.50033V9.83366H20.9993V7.50033H5.83268V21.5003H16.3327V23.8337H3.49935C2.88051 23.8337 2.28702 23.5878 1.84943 23.1502C1.41185 22.7127 1.16602 22.1192 1.16602 21.5003V7.50033C1.16602 6.88149 1.41185 6.28799 1.84943 5.85041C2.28702 5.41282 2.88051 5.16699 3.49935 5.16699ZM19.8327 12.167H26.8327C27.1421 12.167 27.4389 12.2899 27.6576 12.5087C27.8764 12.7275 27.9994 13.0242 27.9994 13.3337V25.0003C27.9994 25.3097 27.8764 25.6065 27.6576 25.8253C27.4389 26.0441 27.1421 26.167 26.8327 26.167H19.8327C19.5233 26.167 19.2265 26.0441 19.0077 25.8253C18.7889 25.6065 18.666 25.3097 18.666 25.0003V13.3337C18.666 13.0242 18.7889 12.7275 19.0077 12.5087C19.2265 12.2899 19.5233 12.167 19.8327 12.167ZM20.9993 14.5003V22.667H25.666V14.5003H20.9993Z" fill="white"/>
</svg>
