<svg width="450" height="40" viewBox="0 0 450 40" fill="none" xmlns="http://www.w3.org/2000/svg">
<g clip-path="url(#clip0_586_1712)">
<path d="M12 10C6.48 10 2 14.48 2 20C2 25.52 6.48 30 12 30C17.52 30 22 25.52 22 20C22 14.48 17.52 10 12 10ZM12 28C7.58 28 4 24.42 4 20C4 15.58 7.58 12 12 12C16.42 12 20 15.58 20 20C20 24.42 16.42 28 12 28Z" fill="#7E8299"/>
</g>
<rect x="32.5" y="8.5" width="33" height="23" rx="3.5" fill="white"/>
<rect x="32.5" y="8.5" width="33" height="23" rx="3.5" stroke="#E0E3DE"/>
<path fill-rule="evenodd" clip-rule="evenodd" d="M42.751 23.8583H40.6913L39.1467 17.7925C39.0734 17.5134 38.9178 17.2668 38.6888 17.1505C38.1174 16.8583 37.4877 16.6258 36.8008 16.5085V16.275H40.1189C40.5768 16.275 40.9203 16.6258 40.9775 17.0332L41.7789 21.4087L43.8376 16.275H45.8401L42.751 23.8583ZM46.9843 23.8583H45.0391L46.6409 16.275H48.5861L46.9843 23.8583ZM51.1043 18.3758C51.1615 17.9674 51.505 17.7338 51.9057 17.7338C52.5354 17.6752 53.2213 17.7925 53.7937 18.0836L54.1371 16.4509C53.5647 16.2174 52.935 16.1001 52.3636 16.1001C50.4756 16.1001 49.1018 17.1505 49.1018 18.6083C49.1018 19.7174 50.0749 20.2997 50.7618 20.6505C51.505 21.0003 51.7912 21.2338 51.734 21.5836C51.734 22.1083 51.1615 22.3419 50.5901 22.3419C49.9032 22.3419 49.2163 22.167 48.5876 21.8748L48.2441 23.5086C48.9311 23.7997 49.6742 23.917 50.3611 23.917C52.4781 23.9746 53.7937 22.9252 53.7937 21.3501C53.7937 19.3666 51.1043 19.2503 51.1043 18.3758ZM60.6015 23.8583L59.0569 16.275H57.3979C57.0544 16.275 56.711 16.5085 56.5965 16.8583L53.7363 23.8583H55.7388L56.1385 22.7503H58.599L58.8279 23.8583H60.6015ZM57.6827 18.3172L58.2541 21.1752H56.6523L57.6827 18.3172Z" fill="#172B85"/>
<rect x="74" y="8" width="33.6" height="24" rx="4" fill="#262626"/>
<g opacity="0.01">
<rect x="78.8008" y="12.2" width="24" height="15.6544" fill="white"/>
</g>
<rect x="87.6367" y="14.9272" width="6.33107" height="10.1979" fill="#FF5F00"/>
<path fill-rule="evenodd" clip-rule="evenodd" d="M88.2877 20.0271C88.2861 18.0374 89.2122 16.1575 90.7993 14.929C88.1031 12.8394 84.2314 13.1438 81.905 15.6282C79.5786 18.1127 79.5786 21.9432 81.905 24.4277C84.2314 26.9122 88.1031 27.2166 90.7993 25.1269C89.2117 23.8981 88.2855 22.0174 88.2877 20.0271Z" fill="#EB001B"/>
<path fill-rule="evenodd" clip-rule="evenodd" d="M101.288 23.7939V24.3054H101.238V23.9182L101.159 24.2506H101.105L101.027 23.9182V24.3054H100.975V23.7939H101.047L101.131 24.1593L101.216 23.7939H101.288ZM100.824 23.8817V24.3054H100.78V23.8817H100.686V23.794H100.925V23.8817H100.824Z" fill="#F79E1B"/>
<path fill-rule="evenodd" clip-rule="evenodd" d="M101.441 20.0271C101.441 22.5101 100.003 24.7751 97.7386 25.8601C95.474 26.9452 92.78 26.6598 90.8008 25.1252C92.3871 23.8957 93.3134 22.016 93.3134 20.0262C93.3134 18.0364 92.3871 16.1568 90.8008 14.9273C92.78 13.3927 95.474 13.1073 97.7386 14.1923C100.003 15.2774 101.441 17.5424 101.441 20.0253V20.0271Z" fill="#F79E1B"/>
<rect x="116.5" y="8.5" width="32" height="23" rx="3.5" fill="white" stroke="#F0F2EE"/>
<path fill-rule="evenodd" clip-rule="evenodd" d="M137.122 14.5999C137.01 14.6002 136.899 14.604 136.789 14.6165C136.361 14.6653 135.957 14.8795 135.668 15.2102C135.453 15.4554 135.304 15.7592 135.24 16.0839C135.209 16.2443 135.205 16.405 135.205 16.5675V17.6459V18.1687V18.3223C135.205 18.3634 135.196 18.3667 135.239 18.3667H135.925H136.609H137.297C137.521 18.3667 137.747 18.3579 137.971 18.379C138.192 18.3997 138.416 18.4648 138.595 18.6052C138.845 18.8026 138.947 19.1432 138.862 19.4566C138.779 19.7573 138.533 19.959 138.251 20.0427C138.22 20.052 138.188 20.06 138.156 20.0667C138.138 20.0707 138.113 20.07 138.096 20.078C138.088 20.082 138.067 20.087 138.082 20.1022C138.086 20.106 138.102 20.1059 138.114 20.1058C138.119 20.1057 138.124 20.1057 138.126 20.106C138.214 20.1148 138.302 20.1306 138.388 20.1549C138.651 20.2291 138.906 20.3885 139.027 20.6502C139.171 20.96 139.098 21.3436 138.865 21.5838C138.682 21.7731 138.426 21.8697 138.173 21.9018C138.046 21.9177 137.919 21.9145 137.791 21.9145H137.103H136.416H135.732H135.388H135.302C135.283 21.9145 135.227 21.9044 135.211 21.9145C135.202 21.9204 135.205 21.929 135.205 21.9446V22.6028V23.7641V24.9377V25.6324C135.205 25.6393 135.201 25.6698 135.205 25.6754C135.211 25.682 135.257 25.6762 135.268 25.6762H135.354H135.698H136.381H137.069H137.754C138.163 25.6762 138.552 25.5665 138.883 25.31C139.331 24.9623 139.597 24.4094 139.599 23.8291C139.599 23.8067 139.599 23.7842 139.599 23.7617V23.7289C139.599 23.6792 139.599 23.6295 139.599 23.5798V22.9681C139.599 22.672 139.599 22.3759 139.599 22.0798C139.599 21.716 139.599 21.3523 139.599 20.9885C139.599 20.5872 139.599 20.1857 139.599 19.7844C139.599 19.369 139.599 18.9536 139.599 18.5383C139.599 18.1378 139.599 17.7373 139.599 17.3367C139.599 16.9795 139.599 16.6224 139.599 16.2653C139.599 15.9755 139.599 15.6858 139.599 15.3961V14.8173C139.599 14.7466 139.599 14.6759 139.599 14.6052H139.592C139.373 14.6056 139.155 14.6052 138.936 14.6052H138.251H137.563C137.427 14.6052 137.289 14.6002 137.152 14.5999H137.122ZM136.065 18.9273C136.06 18.94 136.065 18.9682 136.065 18.9819V19.4731V19.7026C136.065 19.7218 136.056 19.7877 136.07 19.7974C136.082 19.8057 136.131 19.7974 136.146 19.7974H136.229H136.388H136.703C136.807 19.7974 136.91 19.7993 137.014 19.7974C137.142 19.7951 137.267 19.7567 137.358 19.6626C137.461 19.5562 137.498 19.3996 137.466 19.256C137.452 19.1924 137.425 19.1329 137.384 19.0819C137.306 18.9843 137.189 18.9302 137.066 18.9202C137.008 18.9155 136.949 18.9177 136.89 18.9177H136.575H136.253H136.096C136.088 18.9177 136.082 18.9169 136.078 18.9169C136.072 18.9169 136.069 18.9186 136.065 18.9273ZM136.743 20.3738H136.065C136.065 20.3828 136.065 20.3919 136.065 20.4009V20.8922V21.1823V21.2882C136.065 21.3033 136.059 21.3352 136.065 21.3491C136.074 21.3701 136.159 21.3583 136.186 21.3583H136.357H136.696H137.037C137.148 21.3583 137.254 21.3512 137.352 21.2904C137.471 21.2165 137.552 21.0876 137.573 20.9439C137.596 20.7797 137.543 20.6097 137.425 20.4982C137.329 20.408 137.21 20.3748 137.084 20.3738C137.046 20.3735 137.008 20.3734 136.97 20.3734C136.894 20.3734 136.819 20.3738 136.743 20.3738Z" fill="url(#paint0_linear_586_1712)"/>
<mask id="mask0_586_1712" style="mask-type:luminance" maskUnits="userSpaceOnUse" x="135" y="14" width="5" height="12">
<path fill-rule="evenodd" clip-rule="evenodd" d="M137.122 14.5999C137.01 14.6002 136.899 14.604 136.789 14.6165C136.361 14.6653 135.957 14.8795 135.668 15.2102C135.453 15.4554 135.304 15.7592 135.24 16.0839C135.209 16.2443 135.205 16.405 135.205 16.5675V17.6459V18.1687V18.3223C135.205 18.3634 135.196 18.3667 135.239 18.3667H135.925H136.609H137.297C137.521 18.3667 137.747 18.3579 137.971 18.379C138.192 18.3997 138.416 18.4648 138.595 18.6052C138.845 18.8026 138.947 19.1432 138.862 19.4566C138.779 19.7573 138.533 19.959 138.251 20.0427C138.22 20.052 138.188 20.06 138.156 20.0667C138.138 20.0707 138.113 20.07 138.096 20.078C138.088 20.082 138.067 20.087 138.082 20.1022C138.086 20.106 138.102 20.1059 138.114 20.1058C138.119 20.1057 138.124 20.1057 138.126 20.106C138.214 20.1148 138.302 20.1306 138.388 20.1549C138.651 20.2291 138.906 20.3885 139.027 20.6502C139.171 20.96 139.098 21.3436 138.865 21.5838C138.682 21.7731 138.426 21.8697 138.173 21.9018C138.046 21.9177 137.919 21.9145 137.791 21.9145H137.103H136.416H135.732H135.388H135.302C135.283 21.9145 135.227 21.9044 135.211 21.9145C135.202 21.9204 135.205 21.929 135.205 21.9446V22.6028V23.7641V24.9377V25.6324C135.205 25.6393 135.201 25.6698 135.205 25.6754C135.211 25.682 135.257 25.6762 135.268 25.6762H135.354H135.698H136.381H137.069H137.754C138.163 25.6762 138.552 25.5665 138.883 25.31C139.331 24.9623 139.597 24.4094 139.599 23.8291C139.599 23.8067 139.599 23.7842 139.599 23.7617V23.7289C139.599 23.6792 139.599 23.6295 139.599 23.5798V22.9681C139.599 22.672 139.599 22.3759 139.599 22.0798C139.599 21.716 139.599 21.3523 139.599 20.9885C139.599 20.5872 139.599 20.1857 139.599 19.7844C139.599 19.369 139.599 18.9536 139.599 18.5383C139.599 18.1378 139.599 17.7373 139.599 17.3367C139.599 16.9795 139.599 16.6224 139.599 16.2653C139.599 15.9755 139.599 15.6858 139.599 15.3961V14.8173C139.599 14.7466 139.599 14.6759 139.599 14.6052H139.592C139.373 14.6056 139.155 14.6052 138.936 14.6052H138.251H137.563C137.427 14.6052 137.289 14.6002 137.152 14.5999H137.122ZM136.065 18.9273C136.06 18.94 136.065 18.9682 136.065 18.9819V19.4731V19.7026C136.065 19.7218 136.056 19.7877 136.07 19.7974C136.082 19.8057 136.131 19.7974 136.146 19.7974H136.229H136.388H136.703C136.807 19.7974 136.91 19.7993 137.014 19.7974C137.142 19.7951 137.267 19.7567 137.358 19.6626C137.461 19.5562 137.498 19.3996 137.466 19.256C137.452 19.1924 137.425 19.1329 137.384 19.0819C137.306 18.9843 137.189 18.9302 137.066 18.9202C137.008 18.9155 136.949 18.9177 136.89 18.9177H136.575H136.253H136.096C136.088 18.9177 136.082 18.9169 136.078 18.9169C136.072 18.9169 136.069 18.9186 136.065 18.9273ZM136.743 20.3738H136.065C136.065 20.3828 136.065 20.3919 136.065 20.4009V20.8922V21.1823V21.2882C136.065 21.3033 136.059 21.3352 136.065 21.3491C136.074 21.3701 136.159 21.3583 136.186 21.3583H136.357H136.696H137.037C137.148 21.3583 137.254 21.3512 137.352 21.2904C137.471 21.2165 137.552 21.0876 137.573 20.9439C137.596 20.7797 137.543 20.6097 137.425 20.4982C137.329 20.408 137.21 20.3748 137.084 20.3738C137.046 20.3735 137.008 20.3734 136.97 20.3734C136.894 20.3734 136.819 20.3738 136.743 20.3738Z" fill="white"/>
</mask>
<g mask="url(#mask0_586_1712)">
</g>
<path fill-rule="evenodd" clip-rule="evenodd" d="M126.71 14.6245C126.454 14.6671 126.208 14.768 125.993 14.9167C125.499 15.2594 125.203 15.8398 125.201 16.4505C125.2 16.6301 125.201 16.8096 125.201 16.9892V18.1329V19.4626V20.5594V20.8904V20.9778C125.201 21.0117 125.201 21.0046 125.238 21.0229C125.28 21.0432 125.322 21.0629 125.364 21.0821C125.701 21.2351 126.057 21.3516 126.423 21.3974C126.687 21.4304 126.969 21.4395 127.218 21.3318C127.417 21.2455 127.576 21.0862 127.658 20.8796C127.71 20.7469 127.725 20.6067 127.725 20.4647V18.8905V18.5362V18.4231C127.725 18.4118 127.719 18.3766 127.725 18.3671C127.733 18.3553 127.795 18.3628 127.812 18.3628H127.947H128.212H129.275V18.3953V19.9492C129.275 20.1316 129.275 20.3141 129.275 20.4965C129.275 20.7091 129.244 20.9224 129.159 21.1177C129.075 21.3124 128.939 21.4768 128.771 21.602C128.365 21.9057 127.826 21.9848 127.335 22.0076C126.983 22.0239 126.63 22.0098 126.28 21.974C125.918 21.937 125.552 21.882 125.201 21.785V21.911V22.775V24.0356V25.1744V25.5367V25.6384C125.201 25.6438 125.197 25.6705 125.201 25.6749C125.208 25.6832 125.275 25.675 125.288 25.675H125.377H125.559H125.92H126.642H127.365C127.671 25.675 127.986 25.6966 128.285 25.619C128.809 25.4835 129.254 25.1041 129.48 24.6018C129.605 24.3261 129.646 24.033 129.646 23.7328V23.2381V22.4047V21.3245V20.0952V18.7984V17.5312V16.3897V15.4569V14.8296V14.6H129.466H128.715H127.964H127.215C127.182 14.6 127.149 14.5999 127.115 14.5999C126.98 14.5999 126.844 14.6021 126.71 14.6245Z" fill="url(#paint1_linear_586_1712)"/>
<mask id="mask1_586_1712" style="mask-type:luminance" maskUnits="userSpaceOnUse" x="125" y="14" width="5" height="12">
<path fill-rule="evenodd" clip-rule="evenodd" d="M126.71 14.6245C126.454 14.6671 126.208 14.768 125.993 14.9167C125.499 15.2594 125.203 15.8398 125.201 16.4505C125.2 16.6301 125.201 16.8096 125.201 16.9892V18.1329V19.4626V20.5594V20.8904V20.9778C125.201 21.0117 125.201 21.0046 125.238 21.0229C125.28 21.0432 125.322 21.0629 125.364 21.0821C125.701 21.2351 126.057 21.3516 126.423 21.3974C126.687 21.4304 126.969 21.4395 127.218 21.3318C127.417 21.2455 127.576 21.0862 127.658 20.8796C127.71 20.7469 127.725 20.6067 127.725 20.4647V18.8905V18.5362V18.4231C127.725 18.4118 127.719 18.3766 127.725 18.3671C127.733 18.3553 127.795 18.3628 127.812 18.3628H127.947H128.212H129.275V18.3953V19.9492C129.275 20.1316 129.275 20.3141 129.275 20.4965C129.275 20.7091 129.244 20.9224 129.159 21.1177C129.075 21.3124 128.939 21.4768 128.771 21.602C128.365 21.9057 127.826 21.9848 127.335 22.0076C126.983 22.0239 126.63 22.0098 126.28 21.974C125.918 21.937 125.552 21.882 125.201 21.785V21.911V22.775V24.0356V25.1744V25.5367V25.6384C125.201 25.6438 125.197 25.6705 125.201 25.6749C125.208 25.6832 125.275 25.675 125.288 25.675H125.377H125.559H125.92H126.642H127.365C127.671 25.675 127.986 25.6966 128.285 25.619C128.809 25.4835 129.254 25.1041 129.48 24.6018C129.605 24.3261 129.646 24.033 129.646 23.7328V23.2381V22.4047V21.3245V20.0952V18.7984V17.5312V16.3897V15.4569V14.8296V14.6H129.466H128.715H127.964H127.215C127.182 14.6 127.149 14.5999 127.115 14.5999C126.98 14.5999 126.844 14.6021 126.71 14.6245Z" fill="white"/>
</mask>
<g mask="url(#mask1_586_1712)">
</g>
<path fill-rule="evenodd" clip-rule="evenodd" d="M131.871 14.6044C131.678 14.617 131.488 14.6619 131.309 14.7376C130.915 14.9049 130.588 15.2171 130.395 15.6089C130.269 15.8654 130.205 16.1505 130.204 16.4379C130.203 16.4844 130.204 16.5309 130.204 16.5774V17.3929V18.8425C130.216 18.8318 130.228 18.8213 130.24 18.8108C130.285 18.774 130.331 18.7396 130.378 18.7074C130.672 18.5067 131.016 18.3943 131.36 18.328C131.641 18.274 131.927 18.2507 132.212 18.2451C132.492 18.2396 132.774 18.2494 133.053 18.2806C133.337 18.3123 133.62 18.3618 133.9 18.4237C133.935 18.4313 133.969 18.4391 134.003 18.4472C134.022 18.4516 134.092 18.4575 134.102 18.472C134.109 18.4823 134.102 18.5237 134.102 18.5357V18.6852V19.2488C134.062 19.2281 134.022 19.2079 133.982 19.1883C133.677 19.0398 133.356 18.9295 133.023 18.8752C132.575 18.8023 132.069 18.8043 131.682 19.0806C131.309 19.3472 131.178 19.8204 131.219 20.2704C131.258 20.7082 131.493 21.0836 131.888 21.2587C132.279 21.4316 132.732 21.4084 133.141 21.325C133.476 21.2565 133.796 21.1312 134.102 20.9741V21.0297V21.6866C134.102 21.6989 134.109 21.7404 134.102 21.7509C134.092 21.765 134.021 21.771 134.003 21.7752C133.932 21.792 133.86 21.8077 133.789 21.8226C133.506 21.8811 133.222 21.9276 132.935 21.954C132.654 21.9799 132.371 21.985 132.089 21.9741C131.802 21.963 131.515 21.9324 131.234 21.8682C130.863 21.7836 130.495 21.6381 130.204 21.3807V21.5017V22.3477V23.6099V24.8388V25.5675C130.204 25.5761 130.198 25.6121 130.204 25.619C130.216 25.6341 130.316 25.6217 130.339 25.6217H130.704H131.437H132.167C132.425 25.6217 132.687 25.6359 132.943 25.617C133.409 25.5827 133.851 25.3556 134.158 24.9926C134.452 24.6448 134.597 24.2048 134.597 23.7461V23.3348V22.5484V21.4863V20.2468V18.9338V17.6348V16.4578V15.4917V14.8398V14.6007H134.462H133.33H132.201C132.148 14.6007 132.095 14.5999 132.041 14.5999C131.984 14.5999 131.927 14.6008 131.871 14.6044Z" fill="url(#paint2_linear_586_1712)"/>
<mask id="mask2_586_1712" style="mask-type:luminance" maskUnits="userSpaceOnUse" x="130" y="14" width="5" height="12">
<path fill-rule="evenodd" clip-rule="evenodd" d="M131.871 14.6044C131.678 14.617 131.488 14.6619 131.309 14.7376C130.915 14.9049 130.588 15.2171 130.395 15.6089C130.269 15.8654 130.205 16.1505 130.204 16.4379C130.203 16.4844 130.204 16.5309 130.204 16.5774V17.3929V18.8425C130.216 18.8318 130.228 18.8213 130.24 18.8108C130.285 18.774 130.331 18.7396 130.378 18.7074C130.672 18.5067 131.016 18.3943 131.36 18.328C131.641 18.274 131.927 18.2507 132.212 18.2451C132.492 18.2396 132.774 18.2494 133.053 18.2806C133.337 18.3123 133.62 18.3618 133.9 18.4237C133.935 18.4313 133.969 18.4391 134.003 18.4472C134.022 18.4516 134.092 18.4575 134.102 18.472C134.109 18.4823 134.102 18.5237 134.102 18.5357V18.6852V19.2488C134.062 19.2281 134.022 19.2079 133.982 19.1883C133.677 19.0398 133.356 18.9295 133.023 18.8752C132.575 18.8023 132.069 18.8043 131.682 19.0806C131.309 19.3472 131.178 19.8204 131.219 20.2704C131.258 20.7082 131.493 21.0836 131.888 21.2587C132.279 21.4316 132.732 21.4084 133.141 21.325C133.476 21.2565 133.796 21.1312 134.102 20.9741V21.0297V21.6866C134.102 21.6989 134.109 21.7404 134.102 21.7509C134.092 21.765 134.021 21.771 134.003 21.7752C133.932 21.792 133.86 21.8077 133.789 21.8226C133.506 21.8811 133.222 21.9276 132.935 21.954C132.654 21.9799 132.371 21.985 132.089 21.9741C131.802 21.963 131.515 21.9324 131.234 21.8682C130.863 21.7836 130.495 21.6381 130.204 21.3807V21.5017V22.3477V23.6099V24.8388V25.5675C130.204 25.5761 130.198 25.6121 130.204 25.619C130.216 25.6341 130.316 25.6217 130.339 25.6217H130.704H131.437H132.167C132.425 25.6217 132.687 25.6359 132.943 25.617C133.409 25.5827 133.851 25.3556 134.158 24.9926C134.452 24.6448 134.597 24.2048 134.597 23.7461V23.3348V22.5484V21.4863V20.2468V18.9338V17.6348V16.4578V15.4917V14.8398V14.6007H134.462H133.33H132.201C132.148 14.6007 132.095 14.5999 132.041 14.5999C131.984 14.5999 131.927 14.6008 131.871 14.6044Z" fill="white"/>
</mask>
<g mask="url(#mask2_586_1712)">
</g>
<rect x="157.199" y="8" width="33.6" height="24" rx="4" fill="#016FD0"/>
<path fill-rule="evenodd" clip-rule="evenodd" d="M166.646 24.4377V20.699H170.626L171.053 21.2526L171.494 20.699H185.94V24.1799C185.94 24.1799 185.562 24.434 185.125 24.4377H177.126L176.645 23.8484V24.4377H175.067V23.4317C175.067 23.4317 174.852 23.5721 174.386 23.5721H173.849V24.4377H171.46L171.034 23.8722L170.601 24.4377H166.646Z" fill="white"/>
<path fill-rule="evenodd" clip-rule="evenodd" d="M162 17.8812L162.897 15.8H164.449L164.959 16.9658V15.8H166.888L167.191 16.6426L167.485 15.8H176.146V16.2237C176.146 16.2237 176.601 15.8 177.349 15.8L180.159 15.8098L180.66 16.9604V15.8H182.274L182.719 16.4609V15.8H184.348V19.5388H182.719L182.293 18.8758V19.5388H179.921L179.682 18.9494H179.044L178.81 19.5388H177.201C176.557 19.5388 176.146 19.1238 176.146 19.1238V19.5388H173.72L173.239 18.9494V19.5388H164.22L163.981 18.9494H163.345L163.109 19.5388H162V17.8812Z" fill="white"/>
<path fill-rule="evenodd" clip-rule="evenodd" d="M162.004 19.0604L163.214 16.261H164.132L165.341 19.0604H164.536L164.314 18.4999H163.015L162.792 19.0604H162.004ZM164.058 17.8921L163.663 16.9125L163.266 17.8921H164.058Z" fill="#016FD0"/>
<path fill-rule="evenodd" clip-rule="evenodd" d="M165.426 19.06V16.2605L166.546 16.2646L167.197 18.0696L167.833 16.2605H168.944V19.06H168.24V16.9972L167.494 19.06H166.877L166.129 16.9972V19.06H165.426Z" fill="#016FD0"/>
<path fill-rule="evenodd" clip-rule="evenodd" d="M169.424 19.06V16.2605H171.72V16.8867H170.135V17.3655H171.683V17.9549H170.135V18.4522H171.72V19.06H169.424Z" fill="#016FD0"/>
<path fill-rule="evenodd" clip-rule="evenodd" d="M172.127 19.0604V16.261H173.693C174.211 16.261 174.676 16.5801 174.676 17.1692C174.676 17.6728 174.284 17.9972 173.904 18.0291L174.83 19.0604H173.97L173.127 18.0659H172.831V19.0604H172.127ZM173.634 16.8871H172.83V17.4765H173.645C173.786 17.4765 173.968 17.3678 173.968 17.1818C173.968 17.0373 173.827 16.8871 173.634 16.8871Z" fill="#016FD0"/>
<path fill-rule="evenodd" clip-rule="evenodd" d="M175.683 19.06H174.965V16.2605H175.683V19.06Z" fill="#016FD0"/>
<path fill-rule="evenodd" clip-rule="evenodd" d="M177.386 19.06H177.231C176.481 19.06 176.025 18.472 176.025 17.6717C176.025 16.8517 176.476 16.2605 177.423 16.2605H178.201V16.9235H177.395C177.01 16.9235 176.738 17.2221 176.738 17.6786C176.738 18.2208 177.049 18.4485 177.497 18.4485H177.683L177.386 19.06Z" fill="#016FD0"/>
<path fill-rule="evenodd" clip-rule="evenodd" d="M177.707 19.0604L178.917 16.261H179.835L181.044 19.0604H180.239L180.017 18.4999H178.718L178.495 19.0604H177.707ZM179.761 17.8921L179.366 16.9125L178.969 17.8921H179.761Z" fill="#016FD0"/>
<path fill-rule="evenodd" clip-rule="evenodd" d="M181.127 19.06V16.2605H182.021L183.164 18.0194V16.2605H183.867V19.06H183.002L181.831 17.255V19.06H181.127Z" fill="#016FD0"/>
<path fill-rule="evenodd" clip-rule="evenodd" d="M167.129 23.9589V21.1594H169.425V21.7856H167.84V22.2645H169.388V22.8538H167.84V23.3511H169.425V23.9589H167.129Z" fill="#016FD0"/>
<path fill-rule="evenodd" clip-rule="evenodd" d="M178.379 23.9589V21.1594H180.675V21.7856H179.09V22.2645H180.63V22.8538H179.09V23.3511H180.675V23.9589H178.379Z" fill="#016FD0"/>
<path fill-rule="evenodd" clip-rule="evenodd" d="M169.513 23.9589L170.631 22.5764L169.486 21.1594H170.373L171.054 22.0354L171.738 21.1594H172.59L171.461 22.5592L172.58 23.9589H171.694L171.032 23.0967L170.387 23.9589H169.513Z" fill="#016FD0"/>
<path fill-rule="evenodd" clip-rule="evenodd" d="M172.664 23.9594V21.1599H174.218C174.856 21.1599 175.228 21.5687 175.228 22.1015C175.228 22.7446 174.753 23.0753 174.127 23.0753H173.386V23.9594H172.664ZM174.167 21.7927H173.387V22.4373H174.164C174.37 22.4373 174.514 22.3019 174.514 22.115C174.514 21.9162 174.369 21.7927 174.167 21.7927Z" fill="#016FD0"/>
<path fill-rule="evenodd" clip-rule="evenodd" d="M175.535 23.9589V21.1594H177.101C177.62 21.1594 178.084 21.4785 178.084 22.0676C178.084 22.5712 177.693 22.8956 177.313 22.9275L178.238 23.9589H177.379L176.535 22.9643H176.239V23.9589H175.535ZM177.043 21.7854H176.238V22.3748H177.053C177.194 22.3748 177.376 22.2661 177.376 22.0801C177.376 21.9355 177.235 21.7854 177.043 21.7854Z" fill="#016FD0"/>
<path fill-rule="evenodd" clip-rule="evenodd" d="M181.001 23.9589V23.3511H182.41C182.618 23.3511 182.708 23.2391 182.708 23.1163C182.708 22.9986 182.618 22.8796 182.41 22.8796H181.773C181.22 22.8796 180.912 22.5444 180.912 22.0412C180.912 21.5923 181.194 21.1594 182.016 21.1594H183.386L183.09 21.7893H181.905C181.678 21.7893 181.609 21.9075 181.609 22.0204C181.609 22.1365 181.695 22.2645 181.868 22.2645H182.535C183.151 22.2645 183.419 22.6124 183.419 23.0679C183.419 23.5577 183.12 23.9589 182.501 23.9589H181.001Z" fill="#016FD0"/>
<path fill-rule="evenodd" clip-rule="evenodd" d="M183.583 23.9589V23.3511H184.992C185.2 23.3511 185.29 23.2391 185.29 23.1163C185.29 22.9986 185.2 22.8796 184.992 22.8796H184.355C183.802 22.8796 183.494 22.5444 183.494 22.0412C183.494 21.5923 183.776 21.1594 184.598 21.1594H185.968L185.672 21.7893H184.487C184.261 21.7893 184.191 21.9075 184.191 22.0204C184.191 22.1365 184.277 22.2645 184.45 22.2645H185.117C185.733 22.2645 186.001 22.6124 186.001 23.0679C186.001 23.5577 185.703 23.9589 185.083 23.9589H183.583Z" fill="#016FD0"/>
<path d="M201.809 19.56H202.393C202.595 19.56 202.758 19.536 202.881 19.488C203.003 19.4347 203.115 19.3467 203.217 19.224L207.033 14.904C207.139 14.7653 207.251 14.6693 207.369 14.616C207.486 14.5627 207.63 14.536 207.801 14.536H209.113L204.745 19.472C204.638 19.6 204.534 19.7067 204.433 19.792C204.337 19.872 204.233 19.9387 204.121 19.992C204.265 20.04 204.395 20.112 204.513 20.208C204.63 20.2987 204.745 20.4187 204.857 20.568L209.417 26H208.073C207.971 26 207.883 25.9947 207.809 25.984C207.739 25.968 207.678 25.9467 207.625 25.92C207.571 25.888 207.523 25.8533 207.481 25.816C207.443 25.7733 207.406 25.7253 207.369 25.672L203.417 21.12C203.31 20.9867 203.195 20.8933 203.073 20.84C202.95 20.7813 202.763 20.752 202.513 20.752H201.809V26H200.265V14.536H201.809V19.56ZM215.068 22.352C214.412 22.3733 213.852 22.4267 213.388 22.512C212.929 22.592 212.553 22.6987 212.26 22.832C211.972 22.9653 211.761 23.1227 211.628 23.304C211.5 23.4853 211.436 23.688 211.436 23.912C211.436 24.1253 211.47 24.3093 211.54 24.464C211.609 24.6187 211.702 24.7467 211.82 24.848C211.942 24.944 212.084 25.016 212.244 25.064C212.409 25.1067 212.585 25.128 212.772 25.128C213.022 25.128 213.252 25.104 213.46 25.056C213.668 25.0027 213.862 24.928 214.044 24.832C214.23 24.736 214.406 24.6213 214.572 24.488C214.742 24.3547 214.908 24.2027 215.068 24.032V22.352ZM210.468 19.04C210.916 18.608 211.398 18.2853 211.916 18.072C212.433 17.8587 213.006 17.752 213.636 17.752C214.089 17.752 214.492 17.8267 214.844 17.976C215.196 18.1253 215.492 18.3333 215.732 18.6C215.972 18.8667 216.153 19.1893 216.276 19.568C216.398 19.9467 216.46 20.3627 216.46 20.816V26H215.828C215.689 26 215.582 25.9787 215.508 25.936C215.433 25.888 215.374 25.7973 215.332 25.664L215.172 24.896C214.958 25.0933 214.75 25.2693 214.548 25.424C214.345 25.5733 214.132 25.7013 213.908 25.808C213.684 25.9093 213.444 25.9867 213.188 26.04C212.937 26.0987 212.657 26.128 212.348 26.128C212.033 26.128 211.737 26.0853 211.46 26C211.182 25.9093 210.94 25.776 210.732 25.6C210.529 25.424 210.366 25.2027 210.244 24.936C210.126 24.664 210.068 24.344 210.068 23.976C210.068 23.656 210.156 23.3493 210.332 23.056C210.508 22.7573 210.793 22.4933 211.188 22.264C211.582 22.0347 212.097 21.848 212.732 21.704C213.366 21.5547 214.145 21.4693 215.068 21.448V20.816C215.068 20.1867 214.932 19.712 214.66 19.392C214.388 19.0667 213.99 18.904 213.468 18.904C213.116 18.904 212.82 18.9493 212.58 19.04C212.345 19.1253 212.14 19.224 211.964 19.336C211.793 19.4427 211.644 19.5413 211.516 19.632C211.393 19.7173 211.27 19.76 211.148 19.76C211.052 19.76 210.969 19.736 210.9 19.688C210.83 19.6347 210.772 19.5707 210.724 19.496L210.468 19.04ZM220.181 19.52C220.437 18.9653 220.751 18.5333 221.125 18.224C221.498 17.9093 221.954 17.752 222.493 17.752C222.663 17.752 222.826 17.7707 222.981 17.808C223.141 17.8453 223.282 17.904 223.405 17.984L223.301 19.048C223.269 19.1813 223.189 19.248 223.061 19.248C222.986 19.248 222.877 19.232 222.733 19.2C222.589 19.168 222.426 19.152 222.245 19.152C221.989 19.152 221.759 19.1893 221.557 19.264C221.359 19.3387 221.181 19.4507 221.021 19.6C220.866 19.744 220.725 19.9253 220.597 20.144C220.474 20.3573 220.362 20.6027 220.261 20.88V26H218.829V17.896H219.645C219.799 17.896 219.906 17.9253 219.965 17.984C220.023 18.0427 220.063 18.144 220.085 18.288L220.181 19.52ZM227.345 26.128C226.705 26.128 226.212 25.9493 225.865 25.592C225.524 25.2347 225.353 24.72 225.353 24.048V19.088H224.377C224.292 19.088 224.22 19.064 224.161 19.016C224.102 18.9627 224.073 18.8827 224.073 18.776V18.208L225.401 18.04L225.729 15.536C225.745 15.456 225.78 15.392 225.833 15.344C225.892 15.2907 225.966 15.264 226.057 15.264H226.777V18.056H229.121V19.088H226.777V23.952C226.777 24.2933 226.86 24.5467 227.025 24.712C227.19 24.8773 227.404 24.96 227.665 24.96C227.814 24.96 227.942 24.9413 228.049 24.904C228.161 24.8613 228.257 24.816 228.337 24.768C228.417 24.72 228.484 24.6773 228.537 24.64C228.596 24.5973 228.646 24.576 228.689 24.576C228.764 24.576 228.83 24.6213 228.889 24.712L229.305 25.392C229.06 25.6213 228.764 25.8027 228.417 25.936C228.07 26.064 227.713 26.128 227.345 26.128ZM237.455 17.896V26H236.607C236.405 26 236.277 25.9013 236.223 25.704L236.111 24.832C235.759 25.2213 235.365 25.536 234.927 25.776C234.49 26.0107 233.989 26.128 233.423 26.128C232.981 26.128 232.589 26.056 232.247 25.912C231.911 25.7627 231.629 25.5547 231.399 25.288C231.17 25.0213 230.997 24.6987 230.879 24.32C230.767 23.9413 230.711 23.5227 230.711 23.064V17.896H232.135V23.064C232.135 23.6773 232.274 24.152 232.551 24.488C232.834 24.824 233.263 24.992 233.839 24.992C234.261 24.992 234.653 24.8933 235.015 24.696C235.383 24.4933 235.722 24.216 236.031 23.864V17.896H237.455ZM254.479 20.272C254.479 21.1307 254.343 21.912 254.071 22.616C253.799 23.32 253.415 23.9227 252.919 24.424C252.423 24.9253 251.826 25.3147 251.127 25.592C250.434 25.864 249.666 26 248.823 26H244.543V14.536H248.823C249.666 14.536 250.434 14.6747 251.127 14.952C251.826 15.224 252.423 15.6133 252.919 16.12C253.415 16.6213 253.799 17.224 254.071 17.928C254.343 18.632 254.479 19.4133 254.479 20.272ZM252.887 20.272C252.887 19.568 252.791 18.9387 252.599 18.384C252.407 17.8293 252.135 17.36 251.783 16.976C251.431 16.592 251.004 16.2987 250.503 16.096C250.002 15.8933 249.442 15.792 248.823 15.792H246.095V24.744H248.823C249.442 24.744 250.002 24.6427 250.503 24.44C251.004 24.2373 251.431 23.9467 251.783 23.568C252.135 23.184 252.407 22.7147 252.599 22.16C252.791 21.6053 252.887 20.976 252.887 20.272ZM261.893 21.064C261.893 20.7333 261.845 20.432 261.749 20.16C261.659 19.8827 261.523 19.6453 261.341 19.448C261.165 19.2453 260.949 19.0907 260.693 18.984C260.437 18.872 260.147 18.816 259.821 18.816C259.139 18.816 258.597 19.016 258.197 19.416C257.803 19.8107 257.557 20.36 257.461 21.064H261.893ZM263.045 24.864C262.869 25.0773 262.659 25.264 262.413 25.424C262.168 25.5787 261.904 25.7067 261.621 25.808C261.344 25.9093 261.056 25.984 260.757 26.032C260.459 26.0853 260.163 26.112 259.869 26.112C259.309 26.112 258.792 26.0187 258.317 25.832C257.848 25.64 257.44 25.3627 257.093 25C256.752 24.632 256.485 24.1787 256.293 23.64C256.101 23.1013 256.005 22.4827 256.005 21.784C256.005 21.2187 256.091 20.6907 256.261 20.2C256.437 19.7093 256.688 19.2853 257.013 18.928C257.339 18.5653 257.736 18.2827 258.205 18.08C258.675 17.872 259.203 17.768 259.789 17.768C260.275 17.768 260.723 17.8507 261.133 18.016C261.549 18.176 261.907 18.4107 262.205 18.72C262.509 19.024 262.747 19.4027 262.917 19.856C263.088 20.304 263.173 20.816 263.173 21.392C263.173 21.616 263.149 21.7653 263.101 21.84C263.053 21.9147 262.963 21.952 262.829 21.952H257.413C257.429 22.464 257.499 22.9093 257.621 23.288C257.749 23.6667 257.925 23.984 258.149 24.24C258.373 24.4907 258.64 24.68 258.949 24.808C259.259 24.9307 259.605 24.992 259.989 24.992C260.347 24.992 260.653 24.952 260.909 24.872C261.171 24.7867 261.395 24.696 261.581 24.6C261.768 24.504 261.923 24.416 262.045 24.336C262.173 24.2507 262.283 24.208 262.373 24.208C262.491 24.208 262.581 24.2533 262.645 24.344L263.045 24.864ZM266.555 24.048C266.816 24.4 267.101 24.648 267.411 24.792C267.725 24.936 268.069 25.008 268.443 25.008C269.205 25.008 269.789 24.7387 270.195 24.2C270.6 23.6613 270.803 22.8587 270.803 21.792C270.803 20.8 270.621 20.072 270.259 19.608C269.901 19.1387 269.389 18.904 268.723 18.904C268.259 18.904 267.853 19.0107 267.507 19.224C267.165 19.4373 266.848 19.7387 266.555 20.128V24.048ZM266.555 19.064C266.896 18.6693 267.28 18.3547 267.707 18.12C268.139 17.8853 268.635 17.768 269.195 17.768C269.669 17.768 270.096 17.8587 270.475 18.04C270.859 18.2213 271.184 18.4853 271.451 18.832C271.717 19.1733 271.92 19.5893 272.059 20.08C272.203 20.5707 272.275 21.1227 272.275 21.736C272.275 22.392 272.195 22.9893 272.035 23.528C271.875 24.0667 271.643 24.528 271.339 24.912C271.04 25.2907 270.675 25.5867 270.243 25.8C269.811 26.008 269.325 26.112 268.787 26.112C268.253 26.112 267.803 26.0133 267.435 25.816C267.072 25.6133 266.755 25.328 266.483 24.96L266.411 25.696C266.368 25.8987 266.245 26 266.043 26H265.123V14.216H266.555V19.064ZM275.78 17.896V26H274.356V17.896H275.78ZM276.084 15.352C276.084 15.4907 276.054 15.6213 275.996 15.744C275.942 15.8613 275.868 15.968 275.772 16.064C275.681 16.1547 275.572 16.2267 275.444 16.28C275.321 16.3333 275.19 16.36 275.052 16.36C274.913 16.36 274.782 16.3333 274.66 16.28C274.542 16.2267 274.438 16.1547 274.348 16.064C274.257 15.968 274.185 15.8613 274.132 15.744C274.078 15.6213 274.052 15.4907 274.052 15.352C274.052 15.2133 274.078 15.0827 274.132 14.96C274.185 14.832 274.257 14.7227 274.348 14.632C274.438 14.536 274.542 14.4613 274.66 14.408C274.782 14.3547 274.913 14.328 275.052 14.328C275.19 14.328 275.321 14.3547 275.444 14.408C275.572 14.4613 275.681 14.536 275.772 14.632C275.868 14.7227 275.942 14.832 275.996 14.96C276.054 15.0827 276.084 15.2133 276.084 15.352ZM280.807 26.128C280.167 26.128 279.674 25.9493 279.327 25.592C278.986 25.2347 278.815 24.72 278.815 24.048V19.088H277.839C277.754 19.088 277.682 19.064 277.623 19.016C277.565 18.9627 277.535 18.8827 277.535 18.776V18.208L278.863 18.04L279.191 15.536C279.207 15.456 279.242 15.392 279.295 15.344C279.354 15.2907 279.429 15.264 279.519 15.264H280.239V18.056H282.583V19.088H280.239V23.952C280.239 24.2933 280.322 24.5467 280.487 24.712C280.653 24.8773 280.866 24.96 281.127 24.96C281.277 24.96 281.405 24.9413 281.511 24.904C281.623 24.8613 281.719 24.816 281.799 24.768C281.879 24.72 281.946 24.6773 281.999 24.64C282.058 24.5973 282.109 24.576 282.151 24.576C282.226 24.576 282.293 24.6213 282.351 24.712L282.767 25.392C282.522 25.6213 282.226 25.8027 281.879 25.936C281.533 26.064 281.175 26.128 280.807 26.128ZM285.038 26.168C284.968 26.3547 284.859 26.4933 284.71 26.584C284.566 26.6747 284.416 26.72 284.262 26.72H283.662L288.47 14.744C288.534 14.5733 288.63 14.4427 288.758 14.352C288.891 14.2613 289.043 14.216 289.214 14.216H289.822L285.038 26.168ZM293.568 19.56H294.152C294.355 19.56 294.517 19.536 294.64 19.488C294.763 19.4347 294.875 19.3467 294.976 19.224L298.792 14.904C298.899 14.7653 299.011 14.6693 299.128 14.616C299.245 14.5627 299.389 14.536 299.56 14.536H300.872L296.504 19.472C296.397 19.6 296.293 19.7067 296.192 19.792C296.096 19.872 295.992 19.9387 295.88 19.992C296.024 20.04 296.155 20.112 296.272 20.208C296.389 20.2987 296.504 20.4187 296.616 20.568L301.176 26H299.832C299.731 26 299.643 25.9947 299.568 25.984C299.499 25.968 299.437 25.9467 299.384 25.92C299.331 25.888 299.283 25.8533 299.24 25.816C299.203 25.7733 299.165 25.7253 299.128 25.672L295.176 21.12C295.069 20.9867 294.955 20.8933 294.832 20.84C294.709 20.7813 294.523 20.752 294.272 20.752H293.568V26H292.024V14.536H293.568V19.56ZM303.834 19.52C304.09 18.9653 304.405 18.5333 304.778 18.224C305.151 17.9093 305.607 17.752 306.146 17.752C306.317 17.752 306.479 17.7707 306.634 17.808C306.794 17.8453 306.935 17.904 307.058 17.984L306.954 19.048C306.922 19.1813 306.842 19.248 306.714 19.248C306.639 19.248 306.53 19.232 306.386 19.2C306.242 19.168 306.079 19.152 305.898 19.152C305.642 19.152 305.413 19.1893 305.21 19.264C305.013 19.3387 304.834 19.4507 304.674 19.6C304.519 19.744 304.378 19.9253 304.25 20.144C304.127 20.3573 304.015 20.6027 303.914 20.88V26H302.482V17.896H303.298C303.453 17.896 303.559 17.9253 303.618 17.984C303.677 18.0427 303.717 18.144 303.738 18.288L303.834 19.52ZM313.606 21.064C313.606 20.7333 313.558 20.432 313.462 20.16C313.371 19.8827 313.235 19.6453 313.054 19.448C312.878 19.2453 312.662 19.0907 312.406 18.984C312.15 18.872 311.859 18.816 311.534 18.816C310.851 18.816 310.31 19.016 309.91 19.416C309.515 19.8107 309.27 20.36 309.174 21.064H313.606ZM314.758 24.864C314.582 25.0773 314.371 25.264 314.126 25.424C313.881 25.5787 313.617 25.7067 313.334 25.808C313.057 25.9093 312.769 25.984 312.47 26.032C312.171 26.0853 311.875 26.112 311.582 26.112C311.022 26.112 310.505 26.0187 310.03 25.832C309.561 25.64 309.153 25.3627 308.806 25C308.465 24.632 308.198 24.1787 308.006 23.64C307.814 23.1013 307.718 22.4827 307.718 21.784C307.718 21.2187 307.803 20.6907 307.974 20.2C308.15 19.7093 308.401 19.2853 308.726 18.928C309.051 18.5653 309.449 18.2827 309.918 18.08C310.387 17.872 310.915 17.768 311.502 17.768C311.987 17.768 312.435 17.8507 312.846 18.016C313.262 18.176 313.619 18.4107 313.918 18.72C314.222 19.024 314.459 19.4027 314.63 19.856C314.801 20.304 314.886 20.816 314.886 21.392C314.886 21.616 314.862 21.7653 314.814 21.84C314.766 21.9147 314.675 21.952 314.542 21.952H309.126C309.142 22.464 309.211 22.9093 309.334 23.288C309.462 23.6667 309.638 23.984 309.862 24.24C310.086 24.4907 310.353 24.68 310.662 24.808C310.971 24.9307 311.318 24.992 311.702 24.992C312.059 24.992 312.366 24.952 312.622 24.872C312.883 24.7867 313.107 24.696 313.294 24.6C313.481 24.504 313.635 24.416 313.758 24.336C313.886 24.2507 313.995 24.208 314.086 24.208C314.203 24.208 314.294 24.2533 314.358 24.344L314.758 24.864ZM322.115 19.824C321.848 19.4667 321.56 19.2187 321.251 19.08C320.942 18.936 320.595 18.864 320.211 18.864C319.459 18.864 318.88 19.1333 318.475 19.672C318.07 20.2107 317.867 20.9787 317.867 21.976C317.867 22.504 317.912 22.9573 318.003 23.336C318.094 23.7093 318.227 24.0187 318.403 24.264C318.579 24.504 318.795 24.68 319.051 24.792C319.307 24.904 319.598 24.96 319.923 24.96C320.392 24.96 320.8 24.8533 321.147 24.64C321.499 24.4267 321.822 24.1253 322.115 23.736V19.824ZM323.539 14.216V26H322.691C322.488 26 322.36 25.9013 322.307 25.704L322.179 24.72C321.832 25.136 321.438 25.472 320.995 25.728C320.552 25.984 320.04 26.112 319.459 26.112C318.995 26.112 318.574 26.024 318.195 25.848C317.816 25.6667 317.494 25.4027 317.227 25.056C316.96 24.7093 316.755 24.2773 316.611 23.76C316.467 23.2427 316.395 22.648 316.395 21.976C316.395 21.3787 316.475 20.824 316.635 20.312C316.795 19.7947 317.024 19.3467 317.323 18.968C317.622 18.5893 317.987 18.2933 318.419 18.08C318.856 17.8613 319.347 17.752 319.891 17.752C320.387 17.752 320.811 17.8373 321.163 18.008C321.52 18.1733 321.838 18.4053 322.115 18.704V14.216H323.539ZM327.492 17.896V26H326.068V17.896H327.492ZM327.796 15.352C327.796 15.4907 327.767 15.6213 327.708 15.744C327.655 15.8613 327.58 15.968 327.484 16.064C327.393 16.1547 327.284 16.2267 327.156 16.28C327.033 16.3333 326.903 16.36 326.764 16.36C326.625 16.36 326.495 16.3333 326.372 16.28C326.255 16.2267 326.151 16.1547 326.06 16.064C325.969 15.968 325.897 15.8613 325.844 15.744C325.791 15.6213 325.764 15.4907 325.764 15.352C325.764 15.2133 325.791 15.0827 325.844 14.96C325.897 14.832 325.969 14.7227 326.06 14.632C326.151 14.536 326.255 14.4613 326.372 14.408C326.495 14.3547 326.625 14.328 326.764 14.328C326.903 14.328 327.033 14.3547 327.156 14.408C327.284 14.4613 327.393 14.536 327.484 14.632C327.58 14.7227 327.655 14.832 327.708 14.96C327.767 15.0827 327.796 15.2133 327.796 15.352ZM332.52 26.128C331.88 26.128 331.387 25.9493 331.04 25.592C330.699 25.2347 330.528 24.72 330.528 24.048V19.088H329.552C329.467 19.088 329.395 19.064 329.336 19.016C329.277 18.9627 329.248 18.8827 329.248 18.776V18.208L330.576 18.04L330.904 15.536C330.92 15.456 330.955 15.392 331.008 15.344C331.067 15.2907 331.141 15.264 331.232 15.264H331.952V18.056H334.296V19.088H331.952V23.952C331.952 24.2933 332.035 24.5467 332.2 24.712C332.365 24.8773 332.579 24.96 332.84 24.96C332.989 24.96 333.117 24.9413 333.224 24.904C333.336 24.8613 333.432 24.816 333.512 24.768C333.592 24.72 333.659 24.6773 333.712 24.64C333.771 24.5973 333.821 24.576 333.864 24.576C333.939 24.576 334.005 24.6213 334.064 24.712L334.48 25.392C334.235 25.6213 333.939 25.8027 333.592 25.936C333.245 26.064 332.888 26.128 332.52 26.128Z" fill="white"/>
<defs>
<linearGradient id="paint0_linear_586_1712" x1="139.599" y1="14.1207" x2="135.352" y2="14.1207" gradientUnits="userSpaceOnUse">
<stop stop-color="#43C311"/>
<stop offset="1" stop-color="#288C00"/>
</linearGradient>
<linearGradient id="paint1_linear_586_1712" x1="125.211" y1="25.7063" x2="129.701" y2="25.7063" gradientUnits="userSpaceOnUse">
<stop stop-color="#21469E"/>
<stop offset="1" stop-color="#1E81EB"/>
</linearGradient>
<linearGradient id="paint2_linear_586_1712" x1="134.597" y1="14.5999" x2="130.201" y2="14.5999" gradientUnits="userSpaceOnUse">
<stop stop-color="#F42D3E"/>
<stop offset="1" stop-color="#9C0017"/>
</linearGradient>
<clipPath id="clip0_586_1712">
<rect width="24" height="24" fill="white" transform="translate(0 8)"/>
</clipPath>
</defs>
</svg>
